<svg xmlns="http://www.w3.org/2000/svg" version="1.1" xmlns:xlink="http://www.w3.org/1999/xlink" xmlns:svgjs="http://svgjs.dev/svgjs" width="1500" height="628" viewBox="0 0 1500 628"><g transform="matrix(1,0,0,1,-0.9090907913454203,-1.6228596175565144)"><svg viewBox="0 0 396 166" data-background-color="#ffffff" preserveAspectRatio="xMidYMid meet" height="628" width="1500" xmlns="http://www.w3.org/2000/svg" xmlns:xlink="http://www.w3.org/1999/xlink"><g id="tight-bounds" transform="matrix(1,0,0,1,0.2399999689151855,0.42897244667895507)"><svg viewBox="0 0 395.52 165.1420551066421" height="165.1420551066421" width="395.52"><g><svg viewBox="0 0 769.4639481803572 321.2754291387918" height="165.1420551066421" width="395.52"><g><rect width="20.76986090885661" height="321.2754291387918" x="298.8027236357503" y="0" fill="#b2f042" opacity="1" stroke-width="0" stroke="transparent" fill-opacity="1" class="rect-yte-0" data-fill-palette-color="secondary" rx="1%" id="yte-0" data-palette-color="#b2f042"></rect></g><g transform="matrix(1,0,0,1,373.9439481803572,0.7991926097979842)"><svg viewBox="0 0 395.52 319.67704391919585" height="319.67704391919585" width="395.52"><g id="textblocktransform"><svg viewBox="0 0 395.52 319.67704391919585" height="319.67704391919585" width="395.52" id="textblock"><g><svg viewBox="0 0 395.52 230.31296546768957" height="230.31296546768957" width="395.52"><g transform="matrix(1,0,0,1,0,0)"><svg width="395.52" viewBox="1.47875 -37.813808597911994 70.74050923729997 41.19380811488699" height="230.31296546768957" data-palette-color="#3300ff"><g class="wordmark-text-0" data-fill-palette-color="primary" id="text-0"><path d="M31.1-37.79L31.1-37.79Q31.45-37.89 31.45-37.57 31.45-37.26 31.4-37.01L31.4-37.01Q31.35-36.33 31.25-35.96 31.15-35.6 31.1-35.01L31.1-35.01Q31.1-34.67 31.13-34.38 31.15-34.08 31.1-33.84L31.1-33.84Q31.1-33.59 31.05-33.33 31.01-33.06 30.96-32.81L30.96-32.81Q30.86-32.28 30.81-31.59 30.76-30.91 30.71-30.37L30.71-30.37Q30.62-29.74 30.57-29.57 30.52-29.39 30.47-29.3L30.47-29.3Q30.42-29.1 30.44-28.93 30.47-28.76 30.42-28.56L30.42-28.56Q30.37-28.47 30.32-28.34 30.27-28.22 30.18-28.08L30.18-28.08Q29.93-27.2 29.83-26.71 29.74-26.22 29.64-25.68L29.64-25.68Q29.49-25.05 29.52-24.93 29.54-24.8 29.54-24.66L29.54-24.66Q29.49-24.56 29.44-24.41 29.39-24.27 29.35-24.12L29.35-24.12Q29.1-23.49 29.13-23.34 29.15-23.19 29.1-23L29.1-23Q29.05-22.75 29-22.53 28.96-22.31 28.86-22.02L28.86-22.02Q28.86-21.53 28.81-21.44L28.81-21.44Q28.42-20.95 28.42-20.95L28.42-20.95Q28.17-20.8 27.93-20.46L27.93-20.46Q27.78-20.31 27.64-20.19 27.49-20.07 27.29-19.87L27.29-19.87Q27.1-19.68 26.88-19.53 26.66-19.38 26.46-19.24L26.46-19.24Q26.12-18.99 25.98-18.92 25.83-18.85 25.73-18.85L25.73-18.85Q25.34-18.65 25.2-18.51L25.2-18.51Q24.71-18.36 24.54-18.26 24.37-18.16 24.12-18.07L24.12-18.07Q23.93-17.97 23.51-17.87 23.1-17.77 22.8-17.77L22.8-17.77Q22.31-17.63 21.78-17.77L21.78-17.77Q21.63-17.82 21.48-17.9 21.34-17.97 21.19-18.07L21.19-18.07Q21.09-18.16 20.92-18.21 20.75-18.26 20.61-18.36L20.61-18.36Q20.12-18.6 20.12-18.6L20.12-18.6Q19.43-18.9 19.34-18.99 19.24-19.09 18.99-19.38L18.99-19.38Q18.9-19.48 18.77-19.6 18.65-19.73 18.6-19.82L18.6-19.82Q18.51-19.92 18.48-20.07 18.46-20.21 18.36-20.36L18.36-20.36Q18.16-20.8 18.14-21.02 18.12-21.24 18.02-21.48L18.02-21.48Q17.92-21.63 17.87-21.73 17.82-21.83 17.77-22.02L17.77-22.02Q17.68-22.31 17.63-22.66 17.58-23 17.58-23.19L17.58-23.19Q17.63-23.39 17.7-23.63 17.77-23.88 17.87-24.12L17.87-24.12Q18.12-24.61 18.12-24.71 18.12-24.8 18.16-24.9L18.16-24.9Q18.41-25.15 18.6-25.39 18.8-25.63 18.99-25.78L18.99-25.78Q19.34-26.03 19.51-26.2 19.68-26.37 19.82-26.42L19.82-26.42Q20.02-26.51 20.56-26.61L20.56-26.61Q20.85-26.71 21.19-26.78 21.53-26.86 21.92-26.95L21.92-26.95Q22.46-27.1 23.22-27.2 23.97-27.29 24.66-26.95L24.66-26.95Q24.85-26.56 24.93-26.05 25-25.54 25.05-24.95L25.05-24.95Q25.1-24.51 25.07-24.05 25.05-23.58 24.9-23.14L24.9-23.14Q24.8-22.8 24.68-22.63 24.56-22.46 24.37-22.31L24.37-22.31Q24.27-22.22 24.07-22.22 23.88-22.22 23.68-22.12L23.68-22.12Q22.85-21.88 22.31-21.8 21.78-21.73 21.14-21.83L21.14-21.83Q20.95-22.41 20.85-23.1L20.85-23.1Q20.8-23.44 20.78-23.8 20.75-24.17 20.9-24.51L20.9-24.51Q21.14-24.56 21.24-24.39 21.34-24.22 21.44-24.12L21.44-24.12Q21.53-23.97 21.66-23.88 21.78-23.78 21.92-23.68L21.92-23.68Q22.02-23.39 22.09-23.32 22.17-23.24 22.27-23.14L22.27-23.14Q22.46-22.9 22.58-22.8 22.71-22.71 23.1-22.9L23.1-22.9Q23.29-23.1 23.39-23.14 23.49-23.19 23.58-23.39L23.58-23.39Q23.68-23.63 23.73-23.75 23.78-23.88 23.78-24.27L23.78-24.27Q23.83-24.61 23.83-24.93 23.83-25.24 23.73-25.49L23.73-25.49Q23.58-25.78 23.44-25.81 23.29-25.83 23.19-25.93L23.19-25.93Q22.95-26.17 22.61-26.27L22.61-26.27Q21.97-26.37 21.26-26.17 20.56-25.98 20.26-25.73L20.26-25.73Q20.07-25.63 19.97-25.37 19.87-25.1 19.68-24.85L19.68-24.85Q19.43-24.37 19.24-23.78L19.24-23.78Q19.19-23.58 19.14-23.39 19.09-23.19 19.09-23.1L19.09-23.1Q19.14-22.61 19.09-22.61 19.04-22.61 19.09-22.56L19.09-22.56Q19.09-22.41 19.17-22.22 19.24-22.02 19.29-21.78L19.29-21.78Q19.43-21.44 19.58-21.14 19.73-20.85 19.97-20.56L19.97-20.56Q20.12-20.26 20.19-20.07 20.26-19.87 20.51-19.58L20.51-19.58Q20.9-19.09 21.36-18.85 21.83-18.6 22.56-18.85L22.56-18.85 23.39-19.14Q23.58-19.24 23.75-19.34 23.93-19.43 24.12-19.53L24.12-19.53Q24.61-19.87 24.68-19.9 24.76-19.92 24.85-20.02L24.85-20.02Q25.05-20.12 25.2-20.24 25.34-20.36 25.49-20.46L25.49-20.46Q25.73-20.7 25.98-20.92 26.22-21.14 26.46-21.39L26.46-21.39Q26.71-21.78 26.86-22.02L26.86-22.02Q27.2-22.71 27.25-22.95 27.29-23.19 27.39-23.44L27.39-23.44Q27.54-23.88 27.44-24.41 27.34-24.95 27.2-25.44L27.2-25.44Q27.15-25.68 27.08-25.93 27-26.17 26.9-26.32L26.9-26.32Q26.76-26.61 26.49-26.9 26.22-27.2 25.93-27.49L25.93-27.49Q25.68-27.78 25.42-28.08 25.15-28.37 24.9-28.61L24.9-28.61Q24.8-28.71 24.68-28.81 24.56-28.91 24.46-29.05L24.46-29.05Q24.37-29.15 24.22-29.22 24.07-29.3 23.93-29.39L23.93-29.39Q23.19-29.83 22.88-30.1 22.56-30.37 22.27-30.57L22.27-30.57Q22.02-30.71 21.8-30.83 21.58-30.96 21.34-31.1L21.34-31.1Q20.7-31.4 20.48-31.54 20.26-31.69 20.07-31.84L20.07-31.84Q19.24-32.32 18.55-32.45 17.87-32.57 17.19-32.71L17.19-32.71Q17.04-32.76 16.87-32.81 16.7-32.86 16.55-32.86L16.55-32.86Q16.06-32.81 15.87-32.84 15.67-32.86 15.43-32.86L15.43-32.86Q15.19-32.91 14.99-32.89 14.79-32.86 14.5-32.76L14.5-32.76Q14.4-32.71 14.21-32.64 14.01-32.57 13.87-32.47L13.87-32.47Q12.99-31.93 12.57-31.69 12.16-31.45 11.67-31.2L11.67-31.2Q11.43-31.1 11.21-31.01 10.99-30.91 10.79-30.76L10.79-30.76Q10.64-30.66 10.47-30.54 10.3-30.42 10.16-30.32L10.16-30.32Q10.01-30.18 9.89-30.03 9.77-29.88 9.52-29.88L9.52-29.88Q9.42-29.64 9.25-29.59 9.08-29.54 8.84-29.44L8.84-29.44Q8.79-29.3 8.67-29.22 8.54-29.15 8.45-29.05L8.45-29.05Q8.35-28.96 8.28-28.83 8.2-28.71 8.11-28.61L8.11-28.61Q7.91-28.42 7.74-28.2 7.57-27.98 7.37-27.73L7.37-27.73Q7.18-27.34 7.01-27 6.84-26.66 6.64-26.32L6.64-26.32Q6.59-26.07 6.67-25.95 6.74-25.83 6.69-25.63L6.69-25.63Q6.54-25.1 6.52-24.98 6.49-24.85 6.49-24.66L6.49-24.66Q6.49-24.51 6.52-24.34 6.54-24.17 6.54-24.02L6.54-24.02Q6.54-23.54 6.52-23.24 6.49-22.95 6.45-22.71L6.45-22.71Q6.4-22.36 6.35-22.09 6.3-21.83 6.3-21.39L6.3-21.39Q6.35-21.04 6.35-20.65 6.35-20.26 6.45-19.68L6.45-19.68Q6.59-19.29 6.57-19.17 6.54-19.04 6.54-18.95L6.54-18.95Q6.64-18.6 6.71-18.24 6.79-17.87 6.84-17.48L6.84-17.48Q6.88-17.24 6.88-17.07 6.88-16.89 6.93-16.65L6.93-16.65Q6.98-16.26 7.01-15.99 7.03-15.72 6.98-15.23L6.98-15.23Q6.93-14.99 6.93-14.75 6.93-14.5 6.93-14.11L6.93-14.11Q6.93-13.92 6.88-13.77 6.84-13.62 6.84-13.48L6.84-13.48Q6.88-13.09 6.96-12.74 7.03-12.4 6.98-12.01L6.98-12.01Q6.84-11.57 6.81-11.55 6.79-11.52 6.79-11.47L6.79-11.47Q6.84-10.94 6.79-10.72 6.74-10.5 6.74-10.25L6.74-10.25Q6.74-9.77 6.98-8.94L6.98-8.94Q7.13-8.35 7.13-8.25L7.13-8.25Q7.28-7.96 7.37-7.62 7.47-7.28 7.57-6.88L7.57-6.88Q7.62-6.69 7.81-6.3L7.81-6.3Q7.91-5.96 7.91-5.62 7.91-5.27 8.01-4.88L8.01-4.88Q8.11-4.74 8.18-4.59 8.25-4.44 8.35-4.3L8.35-4.3Q8.45-4.15 8.45-4 8.45-3.86 8.54-3.71L8.54-3.71Q8.94-3.27 8.98-3.15 9.03-3.03 9.08-2.93L9.08-2.93Q9.62-2.54 9.64-2.47 9.67-2.39 9.77-2.29L9.77-2.29Q10.06-2.05 10.13-2.05 10.21-2.05 10.25-2L10.25-2Q10.35-1.9 10.47-1.83 10.6-1.76 10.69-1.66L10.69-1.66Q10.94-1.51 11.18-1.37L11.18-1.37Q11.38-1.22 11.52-1.07 11.67-0.93 11.91-0.83L11.91-0.83 12.4-0.59Q12.55-0.49 12.77-0.44 12.99-0.39 13.23-0.29L13.23-0.29Q13.57-0.2 13.72-0.15 13.87-0.1 14.21-0.2L14.21-0.2Q14.6-0.24 14.87-0.34 15.14-0.44 15.48-0.59L15.48-0.59Q16.02-0.78 16.33-0.88 16.65-0.98 16.75-1.27L16.75-1.27Q17.24-0.88 17.38-1.03 17.53-1.17 17.77-1.22L17.77-1.22Q17.97-1.32 18.16-1.32 18.36-1.32 18.55-1.42L18.55-1.42Q18.75-1.51 18.95-1.61 19.14-1.71 19.38-1.81L19.38-1.81Q20.12-2.15 20.51-2.34 20.9-2.54 21.34-2.78L21.34-2.78Q21.73-3.03 21.78-3 21.83-2.98 21.92-3.03L21.92-3.03Q22.56-3.37 22.9-3.66L22.9-3.66Q23.14-3.81 23.29-4 23.44-4.2 23.63-4.35L23.63-4.35Q23.83-4.54 24.05-4.69 24.27-4.83 24.46-5.03L24.46-5.03 25.34-5.96Q25.44-6.05 25.51-6.23 25.59-6.4 25.73-6.54L25.73-6.54Q26.07-6.79 26.12-6.76 26.17-6.74 26.22-6.79L26.22-6.79Q26.37-6.98 26.51-7.03 26.66-7.08 26.76-7.18L26.76-7.18Q27-7.76 27.12-7.98 27.25-8.2 27.34-8.45L27.34-8.45 27.64-9.03Q27.73-9.13 27.76-9.33 27.78-9.52 27.93-9.62L27.93-9.62Q28.13-9.72 28.25-9.57 28.37-9.42 28.52-9.33L28.52-9.33Q29-9.23 29.15-9.08L29.15-9.08Q29.25-8.69 29.03-8.4 28.81-8.11 28.61-7.76L28.61-7.76Q28.47-7.47 28.32-7.15 28.17-6.84 27.98-6.54L27.98-6.54Q27.64-5.96 27.32-5.35 27-4.74 26.71-4.2L26.71-4.2Q26.42-3.66 26.27-3.47 26.12-3.27 25.93-3.03L25.93-3.03Q25.68-2.59 25.42-2.17 25.15-1.76 24.9-1.27L24.9-1.27Q24.56-0.59 24.29-0.29 24.02 0 23.78 0.34L23.78 0.34Q23.44 0.59 23.1 0.9 22.75 1.22 22.36 1.46L22.36 1.46Q21.88 1.71 21.63 1.88 21.39 2.05 21.14 2.2L21.14 2.2Q20.61 2.49 20.41 2.49 20.21 2.49 20.02 2.54L20.02 2.54Q19.78 2.59 19.65 2.66 19.53 2.73 19.38 2.78L19.38 2.78Q19.19 2.83 19.02 2.83 18.85 2.83 18.65 2.88L18.65 2.88Q18.21 2.98 17.68 3.1 17.14 3.22 16.6 3.22L16.6 3.22Q16.21 3.42 15.48 3.37 14.75 3.32 14.31 3.17L14.31 3.17Q14.11 3.08 13.94 2.98 13.77 2.88 13.57 2.83L13.57 2.83Q13.33 2.78 13.13 2.78 12.94 2.78 12.7 2.73L12.7 2.73 11.96 2.44Q11.23 2.1 10.6 1.9L10.6 1.9Q10.11 1.71 9.86 1.59 9.62 1.46 9.23 1.22L9.23 1.22Q8.54 0.73 8.18 0.34 7.81-0.05 7.42-0.39L7.42-0.39Q7.08-0.73 6.74-1 6.4-1.27 6.15-1.61L6.15-1.61Q5.62-1.81 5.59-1.86 5.57-1.9 5.47-1.95L5.47-1.95Q5.13-2.05 5.08-2.12 5.03-2.2 4.93-2.29L4.93-2.29Q4.35-2.69 4.2-2.86 4.05-3.03 3.91-3.22L3.91-3.22Q3.66-3.56 3.54-3.91 3.42-4.25 3.32-4.49L3.32-4.49Q3.22-4.59 3.15-4.71 3.08-4.83 3.03-4.98L3.03-4.98Q2.93-5.22 2.86-5.49 2.78-5.76 2.69-6.01L2.69-6.01Q2.59-6.2 2.59-6.32 2.59-6.45 2.54-6.59L2.54-6.59Q2.39-7.28 2.39-7.45 2.39-7.62 2.34-7.71L2.34-7.71Q2.2-8.25 2.15-8.33 2.1-8.4 2.05-8.5L2.05-8.5Q1.9-9.03 1.86-9.08 1.81-9.13 1.76-9.23L1.76-9.23Q1.71-9.42 1.71-9.62 1.71-9.81 1.66-10.01L1.66-10.01Q1.61-10.25 1.61-10.42 1.61-10.6 1.61-10.79L1.61-10.79Q1.51-11.57 1.49-12.16 1.46-12.74 1.51-13.62L1.51-13.62Q1.56-14.01 1.56-14.38 1.56-14.75 1.61-15.04L1.61-15.04Q1.61-15.19 1.66-15.31 1.71-15.43 1.71-15.58L1.71-15.58Q1.76-15.97 1.73-16.26 1.71-16.55 1.71-16.75L1.71-16.75 1.76-17.43Q1.86-17.87 1.9-18.02 1.95-18.16 2-18.36L2-18.36Q2.15-18.85 2.27-19.34 2.39-19.82 2.54-20.36L2.54-20.36Q2.64-20.75 2.81-21.24 2.98-21.73 3.08-22.27L3.08-22.27Q3.22-22.71 3.27-22.85 3.32-23 3.37-23.19L3.37-23.19Q3.42-23.34 3.47-23.61 3.52-23.88 3.61-24.12L3.61-24.12Q3.71-24.37 3.78-24.54 3.86-24.71 3.96-24.95L3.96-24.95Q4.1-25.34 4.17-25.44 4.25-25.54 4.3-25.68L4.3-25.68Q4.39-25.83 4.42-26.03 4.44-26.22 4.49-26.37L4.49-26.37Q4.74-26.95 4.79-27.1L4.79-27.1Q5.03-27.59 5.08-27.61 5.13-27.64 5.13-27.73L5.13-27.73Q5.27-28.17 5.42-28.32L5.42-28.32Q5.66-28.66 5.66-28.71 5.66-28.76 5.71-28.86L5.71-28.86Q5.86-29.1 6.05-29.42 6.25-29.74 6.4-30.13L6.4-30.13Q6.84-30.52 7.32-30.81 7.81-31.1 8.2-31.54L8.2-31.54Q8.59-31.59 8.94-31.88L8.94-31.88Q9.42-32.13 9.42-32.13L9.42-32.13Q9.91-32.52 10.25-32.69 10.6-32.86 10.99-33.06L10.99-33.06Q11.23-33.15 11.47-33.28 11.72-33.4 11.91-33.54L11.91-33.54Q12.06-33.64 12.21-33.76 12.35-33.89 12.45-33.98L12.45-33.98Q12.6-34.08 12.72-34.23 12.84-34.38 12.99-34.47L12.99-34.47Q13.33-34.52 13.55-34.62 13.77-34.72 14.01-34.57L14.01-34.57Q14.45-34.86 14.94-34.99 15.43-35.11 15.92-35.35L15.92-35.35Q16.11-35.45 16.38-35.47 16.65-35.5 16.99-35.55L16.99-35.55Q17.24-35.55 17.41-35.6 17.58-35.64 17.82-35.64L17.82-35.64Q18.12-35.64 18.46-35.62 18.8-35.6 19.14-35.55L19.14-35.55Q19.78-35.5 19.95-35.57 20.12-35.64 20.31-35.64L20.31-35.64Q20.65-35.64 21.14-35.55L21.14-35.55Q21.73-35.45 21.85-35.4 21.97-35.35 22.02-35.55L22.02-35.55Q22.36-35.21 22.56-35.11L22.56-35.11Q22.71-35.01 22.88-35.03 23.05-35.06 23.19-35.01L23.19-35.01Q23.54-34.77 23.58-34.77 23.63-34.77 23.73-34.72L23.73-34.72Q24.12-34.47 24.19-34.5 24.27-34.52 24.32-34.47L24.32-34.47Q24.41-34.38 24.49-34.23 24.56-34.08 24.66-33.98L24.66-33.98Q24.95-33.79 25.1-33.64L25.1-33.64Q25.54-33.15 25.66-33.08 25.78-33.01 25.88-32.91L25.88-32.91Q26.12-32.71 26.27-32.62 26.42-32.52 26.56-32.42L26.56-32.42Q27.05-32.08 27.27-31.86 27.49-31.64 27.69-31.64L27.69-31.64Q27.93-31.64 28.08-31.81 28.22-31.98 28.47-32.03L28.47-32.03Q28.61-32.57 28.86-33.06 29.1-33.54 29.35-34.08L29.35-34.08Q29.59-34.57 29.64-34.62 29.69-34.67 29.74-34.77L29.74-34.77Q29.88-35.11 29.93-35.23 29.98-35.35 30.08-35.55L30.08-35.55Q30.18-36.08 30.3-36.23 30.42-36.38 30.52-36.57L30.52-36.57Q30.62-36.77 30.62-36.96 30.62-37.16 30.71-37.3L30.71-37.3Q30.96-37.5 30.96-37.62 30.96-37.74 31.1-37.79ZM69.92-37.5L70.21-37.6Q70.41-37.55 70.41-37.38 70.41-37.21 70.33-37.06 70.26-36.91 70.14-36.87 70.02-36.82 69.92-36.96L69.92-36.96Q69.82-36.87 69.68-36.82 69.53-36.77 69.38-36.67L69.38-36.67Q68.94-36.33 68.92-36.28 68.89-36.23 68.8-36.18L68.8-36.18Q68.55-36.04 68.48-35.96 68.41-35.89 68.31-35.79L68.31-35.79Q68.02-35.45 67.97-35.45 67.92-35.45 67.87-35.35L67.87-35.35Q67.77-35.25 67.67-35.13 67.58-35.01 67.38-34.96L67.38-34.96Q67.04-34.23 66.7-33.89L66.7-33.89Q66.6-33.79 66.5-33.54 66.4-33.3 66.31-33.06L66.31-33.06Q66.16-32.71 66.16-32.23L66.16-32.23Q66.11-32.08 66.09-31.96 66.06-31.84 66.01-31.69L66.01-31.69Q65.96-30.96 65.96-30.15 65.96-29.35 65.92-28.52L65.92-28.52 65.92-27.93Q65.92-27.29 65.87-26.66 65.82-26.03 65.87-25.49L65.87-25.49Q65.87-25.24 65.89-25.07 65.92-24.9 65.92-24.66L65.92-24.66Q65.92-24.41 65.94-24.19 65.96-23.97 65.96-23.73L65.96-23.73Q65.96-23.58 65.92-23.41 65.87-23.24 65.87-23.1L65.87-23.1Q65.87-22.85 65.92-22.56 65.96-22.27 65.96-22.02L65.96-22.02Q66.01-21.19 66.04-20.24 66.06-19.29 65.96-18.46L65.96-18.46Q65.96-18.16 65.99-17.85 66.01-17.53 65.92-17.29L65.92-17.29Q65.82-16.99 65.65-16.85 65.48-16.7 65.43-16.41L65.43-16.41Q65.38-16.16 65.5-15.84 65.62-15.53 65.67-15.09L65.67-15.09Q65.77-14.55 65.72-13.96 65.67-13.38 65.72-12.84L65.72-12.84Q65.77-12.5 65.82-12.21 65.87-11.91 65.96-11.52L65.96-11.52Q66.06-11.08 66.01-10.55 65.96-10.01 66.01-9.57L66.01-9.57 65.96-8.79Q66.01-8.5 65.96-8.33 65.92-8.15 65.92-7.96L65.92-7.96 65.92-6.98Q65.92-6.35 65.96-6.15L65.96-6.15Q66.26-5.81 66.23-5.76 66.21-5.71 66.26-5.66L66.26-5.66Q66.55-5.47 66.65-5.3 66.75-5.13 66.84-5.03L66.84-5.03Q67.23-4.83 67.28-4.79 67.33-4.74 67.38-4.74L67.38-4.74Q67.48-4.64 67.62-4.59 67.77-4.54 67.87-4.44L67.87-4.44Q68.11-4.25 68.33-4.05 68.55-3.86 68.75-3.76L68.75-3.76Q68.85-3.71 68.99-3.71 69.14-3.71 69.28-3.66L69.28-3.66Q70.07-3.37 70.36-3.27 70.65-3.17 70.99-3.03L70.99-3.03Q71.68-2.83 72.21-2.49L72.21-2.49Q72.26-2.1 72.04-2.05 71.82-2 71.63-1.9L71.63-1.9Q71.43-1.81 71.21-1.73 70.99-1.66 70.75-1.66L70.75-1.66Q70.51-1.61 70.29-1.66 70.07-1.71 69.82-1.71L69.82-1.71Q69.58-1.71 69.33-1.68 69.09-1.66 68.85-1.66L68.85-1.66Q68.36-1.71 67.94-1.64 67.53-1.56 67.28-1.51L67.28-1.51Q66.31-1.46 65.33-1.49 64.35-1.51 63.38-1.42L63.38-1.42Q62.84-1.37 62.4-1.34 61.96-1.32 61.47-1.27L61.47-1.27Q60.94-1.27 60.47-1.32 60.01-1.37 59.52-1.37L59.52-1.37Q58.84-1.32 58.18-1.22 57.52-1.12 56.69-1.12L56.69-1.12Q56.49-1.12 56.27-1.07 56.05-1.03 55.86-1.22L55.86-1.22Q55.76-1.46 55.91-1.51 56.05-1.56 56.25-1.66L56.25-1.66Q56.44-1.86 56.56-1.86 56.69-1.86 56.83-1.95L56.83-1.95Q57.42-2.39 57.71-2.56 58.01-2.73 58.35-2.88L58.35-2.88Q58.54-2.98 58.74-3.03 58.93-3.08 59.13-3.17L59.13-3.17Q59.57-3.32 59.62-3.37 59.67-3.42 59.76-3.47L59.76-3.47Q60.35-3.71 60.52-3.83 60.69-3.96 60.89-4.05L60.89-4.05Q61.23-4.25 61.35-4.37 61.47-4.49 61.62-4.59L61.62-4.59Q61.81-4.79 61.94-4.86 62.06-4.93 62.2-5.13L62.2-5.13Q62.3-5.27 62.33-5.42 62.35-5.57 62.45-5.71L62.45-5.71Q62.5-5.86 62.57-6.01 62.64-6.15 62.64-6.25L62.64-6.25Q62.74-6.64 62.67-7.01 62.6-7.37 62.55-7.76L62.55-7.76Q62.55-8.01 62.57-8.28 62.6-8.54 62.6-8.79L62.6-8.79Q62.64-9.28 62.69-9.67 62.74-10.06 62.64-10.5L62.64-10.5Q62.64-10.79 62.6-11.25 62.55-11.72 62.45-12.11L62.45-12.11Q62.35-12.65 62.3-13.26 62.25-13.87 62.2-14.45L62.2-14.45Q62.16-14.99 62.11-15.55 62.06-16.11 62.01-16.65L62.01-16.65Q62.01-16.89 62.01-17.16 62.01-17.43 61.96-17.77L61.96-17.77Q61.91-18.16 61.94-18.51 61.96-18.85 61.91-19.38L61.91-19.38Q61.77-19.53 61.81-20.09 61.86-20.65 61.81-21L61.81-21Q61.77-21.53 61.69-22.05 61.62-22.56 61.62-23.24L61.62-23.24Q61.52-23.63 61.57-23.68 61.62-23.73 61.62-23.83L61.62-23.83Q61.57-24.17 61.55-24.46 61.52-24.76 61.47-25.05L61.47-25.05Q61.47-25.44 61.5-25.81 61.52-26.17 61.47-26.56L61.47-26.56Q61.42-27.54 61.28-28.49 61.13-29.44 61.08-30.37L61.08-30.37Q60.84-30.32 60.74-30.03 60.64-29.74 60.54-29.49L60.54-29.49Q60.45-29.3 60.32-29.1 60.2-28.91 60.1-28.66L60.1-28.66Q59.91-28.22 59.74-27.76 59.57-27.29 59.37-26.86L59.37-26.86Q58.98-25.93 58.54-25 58.1-24.07 58.01-22.95L58.01-22.95Q57.86-22.8 57.66-22.41L57.66-22.41Q57.37-21.97 57.18-21.58L57.18-21.58Q57.08-21.48 56.93-21.24 56.78-21 56.69-20.75L56.69-20.75Q56.64-20.51 56.74-20.24 56.83-19.97 56.83-19.73L56.83-19.73Q56.78-19.48 56.64-19.24 56.49-18.99 56.39-18.75L56.39-18.75Q56.3-18.51 56.25-18.26 56.2-18.02 56.1-17.77L56.1-17.77Q55.76-16.55 55.52-15.77L55.52-15.77Q55.47-15.58 55.47-15.43 55.47-15.28 55.42-15.19L55.42-15.19Q55.27-14.84 55.3-14.79 55.32-14.75 55.27-14.65L55.27-14.65Q55.08-14.06 55.08-13.92 55.08-13.77 55.03-13.62L55.03-13.62Q54.93-13.09 54.73-12.57 54.54-12.06 54.44-11.57L54.44-11.57Q54.29-10.6 54.15-9.35 54-8.11 53.76-7.03L53.76-7.03Q53.71-6.84 53.64-6.49 53.56-6.15 53.51-5.81 53.46-5.47 53.44-5.18 53.42-4.88 53.42-4.79L53.42-4.79Q53.37-4.59 53.34-4.2 53.32-3.81 53.27-3.61L53.27-3.61Q53.22-3.42 53.12-3.08 53.02-2.73 52.78-2.78L52.78-2.78Q52.49-3.22 52.44-3.42L52.44-3.42Q52.39-3.66 52.39-3.86 52.39-4.05 52.34-4.25L52.34-4.25Q52.29-4.49 52.1-4.88L52.1-4.88Q52.05-5.08 52.02-5.27 52-5.47 51.9-5.66L51.9-5.66Q51.8-5.91 51.66-6.2 51.51-6.49 51.36-6.79L51.36-6.79Q51.12-7.32 50.9-7.79 50.68-8.25 50.39-8.79L50.39-8.79Q50.19-9.23 50.12-9.38 50.05-9.52 50-9.67L50-9.67Q49.66-10.3 49.36-11.08 49.07-11.87 48.78-12.55L48.78-12.55Q48.44-13.33 48.09-14.01 47.75-14.7 47.51-15.48L47.51-15.48Q47.26-16.06 47.26-16.19 47.26-16.31 47.21-16.46L47.21-16.46Q47.17-16.55 47.14-16.75 47.12-16.94 47.02-17.14L47.02-17.14 46.68-18.07Q46.58-18.16 46.51-18.31 46.43-18.46 46.38-18.6L46.38-18.6Q46.14-18.99 46.02-19.21 45.9-19.43 45.8-19.68L45.8-19.68Q45.7-19.92 45.63-20.14 45.55-20.36 45.41-20.61L45.41-20.61Q45.31-20.85 45.14-21.09 44.97-21.34 44.82-21.68L44.82-21.68Q44.58-22.27 44.46-22.56 44.33-22.85 44.19-23.14L44.19-23.14Q44.09-23.44 44.02-23.78 43.94-24.12 43.85-24.41L43.85-24.41Q43.7-24.76 43.55-24.9L43.55-24.9Q43.41-25.24 43.33-25.29 43.26-25.34 43.26-25.39L43.26-25.39Q43.06-26.07 42.87-26.56 42.67-27.05 42.48-27.49L42.48-27.49Q42.38-27.59 42.36-27.73 42.33-27.88 42.23-27.98L42.23-27.98Q41.99-28.56 41.99-28.56L41.99-28.56Q41.7-29.15 41.65-29.25 41.6-29.35 41.55-29.44L41.55-29.44Q41.45-29.98 41.43-30.05 41.4-30.13 41.35-30.27L41.35-30.27Q41.31-30.52 41.11-31.01L41.11-31.01Q41.01-31.4 40.84-31.74 40.67-32.08 40.43-32.13L40.43-32.13Q39.89-32.18 39.65-31.54L39.65-31.54Q39.6-31.15 39.55-30.93 39.5-30.71 39.45-30.52L39.45-30.52Q39.4-29.88 39.4-29.37 39.4-28.86 39.35-28.32L39.35-28.32Q39.35-27.88 39.3-27.83 39.26-27.78 39.21-27.69L39.21-27.69Q39.3-27.25 39.21-26.95L39.21-26.95 39.21-25.49Q39.16-25.05 39.21-25 39.26-24.95 39.21-24.85L39.21-24.85Q39.21-24.37 39.11-23.66 39.01-22.95 39.01-22.31L39.01-22.31Q39.06-22.17 38.84-21.61 38.62-21.04 38.57-20.85L38.57-20.85Q38.47-20.61 38.4-20.21 38.33-19.82 38.23-19.43L38.23-19.43Q38.08-18.75 38.01-18.36 37.94-17.97 37.89-17.53L37.89-17.53Q37.84-17.33 37.84-17.11 37.84-16.89 37.69-16.7L37.69-16.7Q37.79-16.55 37.79-16.33 37.79-16.11 37.84-15.82L37.84-15.82Q37.84-15.53 37.81-15.28 37.79-15.04 37.84-14.75L37.84-14.75Q37.84-14.5 37.84-14.23 37.84-13.96 37.89-13.67L37.89-13.67Q38.08-12.79 38.08-12.52 38.08-12.26 38.28-12.01L38.28-12.01Q38.38-11.04 38.55-10.18 38.72-9.33 38.91-8.5L38.91-8.5Q39.11-8.06 39.16-7.76 39.21-7.47 39.3-7.18L39.3-7.18Q39.4-6.74 39.45-6.67 39.5-6.59 39.55-6.49L39.55-6.49Q39.74-5.86 39.82-5.71 39.89-5.57 39.89-5.32L39.89-5.32Q40.33-4.79 40.72-4.54L40.72-4.54Q41.21-4.15 41.28-4.08 41.35-4 41.45-3.91L41.45-3.91Q41.94-3.66 42.09-3.64 42.23-3.61 42.33-3.52L42.33-3.52Q42.43-3.47 42.62-3.37 42.82-3.27 42.97-3.17L42.97-3.17Q43.06-3.03 43.6-2.83L43.6-2.83Q43.94-2.73 44.28-2.56 44.63-2.39 44.97-2.2L44.97-2.2 45.41-1.76Q45.6-1.37 45.51-1.34 45.41-1.32 45.41-1.17L45.41-1.17Q44.53-1.12 44.04-1.12 43.55-1.12 42.97-1.12L42.97-1.12Q42.28-1.12 41.5-1.15 40.72-1.17 39.89-1.12L39.89-1.12Q39.4-1.07 38.94-1.03 38.47-0.98 37.94-0.93L37.94-0.93Q37.4-0.93 36.86-0.95 36.33-0.98 35.74-0.93L35.74-0.93Q35.4-0.93 35.06-0.88 34.71-0.83 34.37-0.78L34.37-0.78Q34.03-0.68 33.69-0.68 33.35-0.68 32.96-0.63L32.96-0.63Q32.71-0.63 32.39-0.56 32.08-0.49 31.78-0.49L31.78-0.49Q31.49-0.54 31.32-0.49 31.15-0.44 31-0.49L31-0.49Q30.52-1.03 30.78-1.1 31.05-1.17 31.2-1.22L31.2-1.22Q31.78-1.46 32.39-1.71 33.01-1.95 33.54-2.2L33.54-2.2Q33.79-2.44 34.01-2.64 34.23-2.83 34.32-3.17L34.32-3.17Q34.42-3.56 34.47-3.56 34.52-3.56 34.57-3.66L34.57-3.66Q34.76-4.3 34.96-4.64L34.96-4.64Q35.06-4.79 35.08-4.91 35.1-5.03 35.15-5.32L35.15-5.32Q35.2-5.76 35.15-6.25L35.15-6.25Q35.2-6.4 35.15-6.57 35.1-6.74 35.1-6.88L35.1-6.88Q35.1-7.23 35.1-7.54 35.1-7.86 35.15-8.15L35.15-8.15Q35.25-8.54 35.28-8.57 35.3-8.59 35.35-8.69L35.35-8.69Q35.4-9.28 35.37-9.47 35.35-9.67 35.35-9.86L35.35-9.86Q35.35-10.06 35.37-10.28 35.4-10.5 35.4-10.64L35.4-10.64Q35.35-11.08 35.4-11.18 35.45-11.28 35.45-11.38L35.45-11.38Q35.45-11.72 35.4-12.16 35.35-12.6 35.35-12.94L35.35-12.94Q35.4-13.82 35.32-14.77 35.25-15.72 35.15-16.36L35.15-16.36Q35.1-16.55 35.06-16.75 35.01-16.94 34.96-17.19L34.96-17.19Q34.96-17.38 35.01-17.55 35.06-17.72 35.06-18.12L35.06-18.12Q35.01-18.51 34.96-19.36 34.91-20.21 34.91-20.75L34.91-20.75Q34.96-21.19 34.91-21.36 34.86-21.53 34.86-21.68L34.86-21.68Q34.81-22.07 34.84-22.31 34.86-22.56 34.91-22.9L34.91-22.9Q34.96-23.24 34.98-23.75 35.01-24.27 35.06-24.71L35.06-24.71Q35.06-25.34 35.08-25.95 35.1-26.56 35.06-27.15L35.06-27.15Q35.01-27.54 34.96-27.91 34.91-28.27 34.86-28.66L34.86-28.66Q34.81-29.1 34.86-29.83 34.91-30.57 34.81-31.1L34.81-31.1Q34.76-31.3 34.69-31.47 34.62-31.64 34.52-31.88L34.52-31.88Q34.42-32.08 34.37-32.3 34.32-32.52 34.23-32.62L34.23-32.62Q34.08-32.81 33.74-33.15L33.74-33.15Q33.49-33.5 33.1-33.94 32.71-34.38 32.32-34.57L32.32-34.57Q32.22-34.67 31.93-34.69 31.64-34.72 31.39-34.81L31.39-34.81Q31.2-34.86 31.03-34.94 30.86-35.01 30.66-35.06L30.66-35.06Q30.08-35.16 30.03-35.21 29.98-35.25 29.88-35.3L29.88-35.3Q29.68-35.4 29.49-35.38 29.29-35.35 29.2-35.6L29.2-35.6Q29.29-35.99 29.78-35.96 30.27-35.94 30.71-35.94L30.71-35.94Q30.95-35.94 31.13-35.96 31.3-35.99 31.49-35.99L31.49-35.99Q31.88-36.08 32.08-36.08L32.08-36.08 32.66-36.13Q33.05-36.13 33.44-36.16 33.84-36.18 34.13-36.08L34.13-36.08Q34.52-36.18 34.91-36.21 35.3-36.23 35.69-36.23L35.69-36.23Q35.94-36.28 36.13-36.28 36.33-36.28 36.57-36.33L36.57-36.33Q37.25-36.33 37.74-36.25 38.23-36.18 38.62-36.18L38.62-36.18Q38.86-36.18 39.04-36.23 39.21-36.28 39.4-36.33L39.4-36.33Q39.74-36.33 40.11-36.33 40.48-36.33 40.82-36.38L40.82-36.38Q41.35-36.43 41.94-36.52 42.53-36.62 43.11-36.67L43.11-36.67Q43.45-36.67 43.77-36.69 44.09-36.72 44.48-36.72L44.48-36.72Q44.72-36.72 45.02-36.67 45.31-36.62 45.55-36.57L45.55-36.57Q45.7-36.57 45.85-36.55 45.99-36.52 46.14-36.52L46.14-36.52Q46.63-36.43 47.12-36.47 47.6-36.52 48.14-36.43L48.14-36.43Q48.29-36.43 48.46-36.45 48.63-36.47 48.73-36.33L48.73-36.33Q48.48-36.04 48.34-35.89L48.34-35.89Q47.9-35.74 47.87-35.69 47.85-35.64 47.75-35.6L47.75-35.6Q47.36-35.4 47.12-35.3L47.12-35.3 46.19-34.52Q45.99-34.03 45.97-33.98 45.94-33.94 45.85-33.69L45.85-33.69Q45.6-32.86 45.53-31.59 45.46-30.32 45.55-29.3L45.55-29.3Q45.6-28.91 45.73-28.49 45.85-28.08 45.94-27.69L45.94-27.69Q46.04-27.49 46.07-27.29 46.09-27.1 46.19-26.9L46.19-26.9Q46.43-26.56 46.41-26.51 46.38-26.46 46.43-26.37L46.43-26.37Q46.87-25.44 47.17-24.76 47.46-24.07 47.85-23.54L47.85-23.54Q47.9-23.29 48.09-22.8L48.09-22.8Q48.34-22.27 48.36-22.22 48.39-22.17 48.39-22.12L48.39-22.12Q48.58-21.73 48.68-21.26 48.78-20.8 48.92-20.41L48.92-20.41Q49.02-20.21 49.09-20.02 49.17-19.82 49.27-19.58L49.27-19.58Q49.36-19.43 49.41-19.21 49.46-18.99 49.56-18.75L49.56-18.75Q49.8-18.21 49.85-17.87L49.85-17.87Q49.95-17.48 50.07-17.16 50.19-16.85 50.34-16.46L50.34-16.46Q50.44-16.21 50.53-15.89 50.63-15.58 50.73-15.23L50.73-15.23Q50.83-14.84 50.97-14.38 51.12-13.92 51.27-13.48L51.27-13.48Q51.36-13.18 51.44-12.92 51.51-12.65 51.71-12.4L51.71-12.4Q51.85-12.55 51.88-12.74 51.9-12.94 52-13.18L52-13.18Q52.05-13.38 52.1-13.6 52.15-13.82 52.19-14.06L52.19-14.06Q52.44-14.7 52.56-15.01 52.68-15.33 52.78-15.67L52.78-15.67Q52.88-16.02 52.95-16.33 53.02-16.65 53.12-16.99L53.12-16.99Q53.32-17.77 53.39-18.21 53.46-18.65 53.56-19.04L53.56-19.04Q53.66-19.29 53.71-19.48 53.76-19.68 53.81-19.92L53.81-19.92Q53.85-20.17 53.88-20.36 53.9-20.56 53.95-20.75L53.95-20.75Q54.05-21.73 54.25-22.61L54.25-22.61Q54.39-22.95 54.39-23.1 54.39-23.24 54.44-23.44L54.44-23.44Q54.54-23.88 54.71-24.29 54.88-24.71 54.98-25.15L54.98-25.15Q55.08-25.73 55.15-25.98 55.22-26.22 55.27-26.37L55.27-26.37Q55.42-26.86 55.47-26.9L55.47-26.9Q55.66-27.44 55.64-27.49 55.61-27.54 55.66-27.64L55.66-27.64Q55.71-27.88 55.78-28.08 55.86-28.27 55.95-28.52L55.95-28.52Q56-28.76 56-28.96 56-29.15 56.1-29.39L56.1-29.39Q56.35-29.79 56.35-29.86 56.35-29.93 56.39-30.03L56.39-30.03Q56.69-30.62 56.69-30.71L56.69-30.71Q56.88-31.4 56.98-31.76 57.08-32.13 56.98-32.52L56.98-32.52Q56.98-32.76 56.69-33.06L56.69-33.06Q56.1-33.64 55.95-33.89 55.81-34.13 55.52-34.23L55.52-34.23Q54.93-34.52 54.73-34.55 54.54-34.57 54.44-34.72L54.44-34.72Q54.1-35.16 54.39-35.16 54.69-35.16 54.98-35.25L54.98-35.25Q55.22-35.3 55.47-35.35 55.71-35.4 55.95-35.45L55.95-35.45Q56.3-35.55 56.98-35.64L56.98-35.64Q57.22-35.69 57.47-35.77 57.71-35.84 57.96-35.89L57.96-35.89Q58.44-35.99 58.98-35.99 59.52-35.99 60.06-36.08L60.06-36.08Q60.79-36.23 61.03-36.25 61.28-36.28 61.62-36.38L61.62-36.38 62.16-36.52Q62.6-36.47 62.69-36.5 62.79-36.52 62.89-36.52L62.89-36.52Q63.28-36.57 63.67-36.65 64.06-36.72 64.45-36.82L64.45-36.82Q64.65-36.87 64.84-36.91 65.04-36.96 65.28-37.01L65.28-37.01Q66.26-37.26 67.67-37.26L67.67-37.26Q68.26-37.21 68.55-37.3L68.55-37.3Q68.85-37.4 69.21-37.4 69.58-37.4 69.92-37.5L69.92-37.5Z" fill="#3300ff" data-fill-palette-color="primary"></path></g></svg></g></svg></g><g transform="matrix(1,0,0,1,75.54432,284.68432910343984)"><svg viewBox="0 0 244.43135999999998 34.99271481575604" height="34.99271481575604" width="244.43135999999998"><g transform="matrix(1,0,0,1,0,0)"><svg width="244.43135999999998" viewBox="1 -32.35 236.08 33.800000000000004" height="34.99271481575604" data-palette-color="#b2f042"><path d="M6.75-1.1L6.75-1.1Q5.35-1.1 4.03-1.7 2.7-2.3 1.85-3.35 1-4.4 1-5.75L1-5.75Q1-7.75 2.05-9.25 3.1-10.75 4.73-11.8 6.35-12.85 8.05-13.4L8.05-13.4Q9.7-13.95 11.65-13.95L11.65-13.95Q13.7-13.95 15.63-13.23 17.55-12.5 18.35-10.75L18.35-10.75Q18.75-12.05 18.95-13.33 19.15-14.6 19.15-15.55L19.15-15.55Q19.15-17.15 18.53-18 17.9-18.85 16.3-18.85L16.3-18.85Q15.65-18.85 14.8-18.38 13.95-17.9 13.15-17.15L13.15-17.15Q12.85-16.85 12.73-16.75 12.6-16.65 12.15-16.65L12.15-16.65Q11.65-16.65 11.38-17 11.1-17.35 11.1-17.8L11.1-17.8Q11.1-18.4 11.55-18.85L11.55-18.85Q12-19.3 12.55-19.85 13.1-20.4 13.98-20.83 14.85-21.25 16.2-21.25L16.2-21.25Q19-21.25 20.3-19.95 21.6-18.65 21.6-15.7L21.6-15.7Q21.6-14.25 21.23-12.7 20.85-11.15 20.35-9.4L20.35-9.4Q20.05-8.3 19.53-6.93 19-5.55 18.2-4.2 17.4-2.85 16.25-1.9L16.25-1.9Q15.9-1.6 15.5-1.6L15.5-1.6Q15-1.6 14.65-1.95 14.3-2.3 14.3-2.75L14.3-2.75Q14.3-3.2 14.75-3.65L14.75-3.65Q15.3-4.1 15.93-5.1 16.55-6.1 17.1-7.6L17.1-7.6Q16.95-9.65 15.18-10.6 13.4-11.55 11.25-11.55L11.25-11.55Q10-11.55 8.85-11.25L8.85-11.25Q7.6-10.9 6.35-10.08 5.1-9.25 4.28-8.15 3.45-7.05 3.45-5.85L3.45-5.85Q3.45-4.9 4.42-4.15 5.4-3.4 6.75-3.4L6.75-3.4Q7.9-3.4 8.58-3.45 9.25-3.5 9.88-3.78 10.5-4.05 11.5-4.8L11.5-4.8Q11.95-5.1 12.25-5.1L12.25-5.1Q12.65-5.1 12.9-4.85 13.15-4.6 13.15-4.2L13.15-4.2Q13.15-3.65 12.6-3.25L12.6-3.25Q10.9-1.85 9.63-1.48 8.35-1.1 6.75-1.1ZM44.39 1.3L44.39 1.3Q42.45 1.3 41.2 0.4 39.95-0.5 39.32-1.88 38.7-3.25 38.7-4.7L38.7-4.7Q38.7-6.35 39.45-7.93 40.2-9.5 41.3-10.9 42.39-12.3 43.45-13.4L43.45-13.4Q46.09-16.15 48.42-17.45 50.74-18.75 52.14-18.75L52.14-18.75Q53.55-18.75 54.25-18.3 54.95-17.85 55.22-17.2 55.5-16.55 55.55-16L55.55-16Q55.64-15.1 55.3-14.53 54.95-13.95 54.34-13.95L54.34-13.95Q53.8-13.95 53.24-14.45 52.7-14.95 52.3-15.55L52.3-15.55Q50.99-15.25 50.05-14.98 49.09-14.7 48.22-14.18 47.34-13.65 46.2-12.65L46.2-12.65Q44.14-10.8 42.67-8.75 41.2-6.7 41.2-4.35L41.2-4.35Q41.2-1.15 44.49-1.15L44.49-1.15Q46.64-1.15 48.95-2.27 51.24-3.4 52.95-5.2L52.95-5.2Q53.34-5.6 53.84-5.6L53.84-5.6Q54.25-5.6 54.52-5.35 54.8-5.1 54.8-4.7L54.8-4.7Q54.8-4.25 54.39-3.9L54.39-3.9Q51.99-1.6 49.62-0.15 47.24 1.3 44.39 1.3ZM63.39-1.1L63.39-1.1Q61.99-1.1 60.67-1.7 59.34-2.3 58.49-3.35 57.64-4.4 57.64-5.75L57.64-5.75Q57.64-7.75 58.69-9.25 59.74-10.75 61.37-11.8 62.99-12.85 64.69-13.4L64.69-13.4Q66.34-13.95 68.29-13.95L68.29-13.95Q70.34-13.95 72.27-13.23 74.19-12.5 74.99-10.75L74.99-10.75Q75.39-12.05 75.59-13.33 75.79-14.6 75.79-15.55L75.79-15.55Q75.79-17.15 75.17-18 74.54-18.85 72.94-18.85L72.94-18.85Q72.29-18.85 71.44-18.38 70.59-17.9 69.79-17.15L69.79-17.15Q69.49-16.85 69.37-16.75 69.24-16.65 68.79-16.65L68.79-16.65Q68.29-16.65 68.02-17 67.74-17.35 67.74-17.8L67.74-17.8Q67.74-18.4 68.19-18.85L68.19-18.85Q68.64-19.3 69.19-19.85 69.74-20.4 70.62-20.83 71.49-21.25 72.84-21.25L72.84-21.25Q75.64-21.25 76.94-19.95 78.24-18.65 78.24-15.7L78.24-15.7Q78.24-14.25 77.87-12.7 77.49-11.15 76.99-9.4L76.99-9.4Q76.69-8.3 76.17-6.93 75.64-5.55 74.84-4.2 74.04-2.85 72.89-1.9L72.89-1.9Q72.54-1.6 72.14-1.6L72.14-1.6Q71.64-1.6 71.29-1.95 70.94-2.3 70.94-2.75L70.94-2.75Q70.94-3.2 71.39-3.65L71.39-3.65Q71.94-4.1 72.57-5.1 73.19-6.1 73.74-7.6L73.74-7.6Q73.59-9.65 71.82-10.6 70.04-11.55 67.89-11.55L67.89-11.55Q66.64-11.55 65.49-11.25L65.49-11.25Q64.24-10.9 62.99-10.08 61.74-9.25 60.92-8.15 60.09-7.05 60.09-5.85L60.09-5.85Q60.09-4.9 61.07-4.15 62.04-3.4 63.39-3.4L63.39-3.4Q64.54-3.4 65.22-3.45 65.89-3.5 66.52-3.78 67.14-4.05 68.14-4.8L68.14-4.8Q68.59-5.1 68.89-5.1L68.89-5.1Q69.29-5.1 69.54-4.85 69.79-4.6 69.79-4.2L69.79-4.2Q69.79-3.65 69.24-3.25L69.24-3.25Q67.54-1.85 66.27-1.48 64.99-1.1 63.39-1.1ZM83.54 1.45L83.54 1.45Q82.74 1.45 81.97 0.83 81.19 0.2 81.29-1.2L81.29-1.2Q81.44-2.5 82.02-4.67 82.59-6.85 83.52-9.5 84.44-12.15 85.52-14.98 86.59-17.8 87.69-20.48 88.79-23.15 89.79-25.33 90.79-27.5 91.49-28.85L91.49-28.85Q91.94-29.65 92.74-29.65L92.74-29.65Q93.19-29.65 93.54-29.33 93.89-29 93.89-28.4L93.89-28.4Q93.89-28.2 93.77-27.55 93.64-26.9 93.42-26.2 93.19-25.5 92.94-25.05L92.94-25.05Q92.44-24.25 91.74-23.4 91.04-22.55 90.49-21.4L90.49-21.4Q89.29-18.8 88.09-15.93 86.89-13.05 85.89-10.3 84.89-7.55 84.27-5.35 83.64-3.15 83.54-1.85L83.54-1.85Q83.54-1.5 83.87-1.1 84.19-0.7 84.52-0.3 84.84 0.1 84.84 0.5L84.84 0.5Q84.84 0.9 84.34 1.25L84.34 1.25Q84.09 1.45 83.54 1.45ZM120.24 0.7L120.24 0.7Q118.99 0.7 118.51-0.25 118.04-1.2 118.04-2.55L118.04-2.55Q118.04-4.3 118.59-6.23 119.14-8.15 119.69-9.4L119.69-9.4Q120.94-12.2 120.94-13.1L120.94-13.1Q120.94-13.8 120.29-13.8L120.29-13.8Q120.14-13.8 119.96-13.8 119.79-13.8 119.59-13.7L119.59-13.7Q118.19-13.3 116.36-12.1 114.54-10.9 112.74-9.4 110.94-7.9 109.64-6.45L109.64-6.45Q108.94-5.65 108.34-4.6 107.74-3.55 107.39-3.15L107.39-3.15Q106.84-2.5 106.09-2.5L106.09-2.5Q105.59-2.5 105.21-2.88 104.84-3.25 104.99-4.05L104.99-4.05Q105.39-6.4 105.54-7.03 105.69-7.65 105.74-7.65L105.74-7.65 105.74-8.15Q105.74-9.35 105.61-10.43 105.49-11.5 105.11-12.1 104.74-12.7 103.99-12.45L103.99-12.45Q102.64-12.05 100.89-10.85 99.14-9.65 97.44-8.15 95.74-6.65 94.54-5.35L94.54-5.35Q93.29-3.95 92.96-3.05 92.64-2.15 92.64-2.15L92.64-2.15Q92.19-1.65 91.79-1.65L91.79-1.65Q90.84-1.65 90.84-3.35L90.84-3.35Q90.84-4.85 91.39-6.75 91.94-8.65 92.76-10.53 93.59-12.4 94.29-13.8L94.29-13.8Q94.74-14.6 95.54-14.6L95.54-14.6Q96.09-14.6 96.46-14.2 96.84-13.8 96.74-13.1L96.74-13.1Q96.74-12.8 96.14-11.93 95.54-11.05 94.91-9.83 94.29-8.6 94.14-7.2L94.14-7.2Q94.69-8.05 95.11-8.43 95.54-8.8 96.19-9.45L96.19-9.45Q97.59-10.85 98.61-11.65 99.64-12.45 100.79-13.05 101.94-13.65 103.64-14.4L103.64-14.4Q104.09-14.65 104.59-14.8 105.09-14.95 105.59-14.95L105.59-14.95Q106.39-14.95 107.04-14.38 107.69-13.8 108.11-12.35 108.54-10.9 108.49-8.15L108.49-8.15Q109.19-8.7 109.71-9.28 110.24-9.85 110.89-10.5L110.89-10.5Q112.34-11.95 113.46-12.88 114.59-13.8 115.86-14.53 117.14-15.25 118.94-16.05L118.94-16.05Q119.49-16.3 120.24-16.53 120.99-16.75 121.69-16.75L121.69-16.75Q122.54-16.75 123.19-16.25 123.84-15.75 123.84-14.4L123.84-14.4Q123.84-13.5 123.51-12.18 123.19-10.85 122.34-8.95L122.34-8.95Q121.59-7.2 121.06-5.2 120.54-3.2 120.34-1.9L120.34-1.9Q120.89-1.1 120.89-0.15L120.89-0.15Q120.89 0.2 120.74 0.45 120.59 0.7 120.24 0.7ZM169.93 0.7L169.93 0.7Q168.68 0.7 168.21-0.25 167.73-1.2 167.73-2.55L167.73-2.55Q167.73-4.3 168.28-6.23 168.83-8.15 169.38-9.4L169.38-9.4Q170.63-12.2 170.63-13.1L170.63-13.1Q170.63-13.8 169.98-13.8L169.98-13.8Q169.83-13.8 169.66-13.8 169.48-13.8 169.28-13.7L169.28-13.7Q167.88-13.3 166.06-12.1 164.23-10.9 162.43-9.4 160.63-7.9 159.33-6.45L159.33-6.45Q158.63-5.65 158.03-4.6 157.43-3.55 157.08-3.15L157.08-3.15Q156.53-2.5 155.78-2.5L155.78-2.5Q155.28-2.5 154.91-2.88 154.53-3.25 154.68-4.05L154.68-4.05Q155.08-6.4 155.23-7.03 155.38-7.65 155.43-7.65L155.43-7.65 155.43-8.15Q155.43-9.35 155.31-10.43 155.18-11.5 154.81-12.1 154.43-12.7 153.68-12.45L153.68-12.45Q152.33-12.05 150.58-10.85 148.83-9.65 147.13-8.15 145.43-6.65 144.23-5.35L144.23-5.35Q142.98-3.95 142.66-3.05 142.33-2.15 142.33-2.15L142.33-2.15Q141.88-1.65 141.48-1.65L141.48-1.65Q140.53-1.65 140.53-3.35L140.53-3.35Q140.53-4.85 141.08-6.75 141.63-8.65 142.46-10.53 143.28-12.4 143.98-13.8L143.98-13.8Q144.43-14.6 145.23-14.6L145.23-14.6Q145.78-14.6 146.16-14.2 146.53-13.8 146.43-13.1L146.43-13.1Q146.43-12.8 145.83-11.93 145.23-11.05 144.61-9.83 143.98-8.6 143.83-7.2L143.83-7.2Q144.38-8.05 144.81-8.43 145.23-8.8 145.88-9.45L145.88-9.45Q147.28-10.85 148.31-11.65 149.33-12.45 150.48-13.05 151.63-13.65 153.33-14.4L153.33-14.4Q153.78-14.65 154.28-14.8 154.78-14.95 155.28-14.95L155.28-14.95Q156.08-14.95 156.73-14.38 157.38-13.8 157.81-12.35 158.23-10.9 158.18-8.15L158.18-8.15Q158.88-8.7 159.41-9.28 159.93-9.85 160.58-10.5L160.58-10.5Q162.03-11.95 163.16-12.88 164.28-13.8 165.56-14.53 166.83-15.25 168.63-16.05L168.63-16.05Q169.18-16.3 169.93-16.53 170.68-16.75 171.38-16.75L171.38-16.75Q172.23-16.75 172.88-16.25 173.53-15.75 173.53-14.4L173.53-14.4Q173.53-13.5 173.21-12.18 172.88-10.85 172.03-8.95L172.03-8.95Q171.28-7.2 170.76-5.2 170.23-3.2 170.03-1.9L170.03-1.9Q170.58-1.1 170.58-0.15L170.58-0.15Q170.58 0.2 170.43 0.45 170.28 0.7 169.93 0.7ZM185.63-19.15L185.63-19.15Q185.38-18.85 185.01-19.1 184.63-19.35 184.38-19.88 184.13-20.4 184.23-20.9L184.23-20.9 184.28-20.9Q184.48-21.65 184.78-22.15 185.08-22.65 185.58-23.15L185.58-23.15Q185.88-23.45 186.38-23.45L186.38-23.45Q186.83-23.45 187.21-23.18 187.58-22.9 187.58-22.5L187.58-22.5Q187.58-22.3 187.43-22.05L187.43-22.05Q187.28-21.85 186.86-21 186.43-20.15 185.63-19.15ZM179.33-0.7L179.33-0.7Q178.53-0.7 177.76-1.33 176.98-1.95 177.13-3.35L177.13-3.35Q177.33-5.3 177.68-6.65 178.03-8 178.48-9.13 178.93-10.25 179.46-11.55 179.98-12.85 180.53-14.7L180.53-14.7Q180.83-15.55 181.78-15.55L181.78-15.55Q182.43-15.55 182.93-15.15 183.43-14.75 183.23-14.05L183.23-14.05Q182.58-11.95 181.93-10.65 181.28-9.35 180.73-8.38 180.18-7.4 179.81-6.28 179.43-5.15 179.33-3.4L179.33-3.4Q179.33-3.25 179.98-2.78 180.63-2.3 180.63-1.7L180.63-1.7Q180.63-1.25 180.13-0.9L180.13-0.9Q179.88-0.7 179.33-0.7ZM203.53 0.4L203.53 0.4Q202.78 0.4 202.13-0.48 201.48-1.35 201.48-2.7L201.48-2.7Q201.48-3.55 201.63-4.85 201.78-6.15 202.08-7.48 202.38-8.8 202.78-9.75L202.78-9.75Q203.58-11.55 203.58-12.6L203.58-12.6Q203.58-13.9 202.38-13.9L202.38-13.9Q202.23-13.9 202.03-13.9 201.83-13.9 201.63-13.8L201.63-13.8Q200.63-13.5 198.93-12.48 197.23-11.45 195.35-10.1 193.48-8.75 191.83-7.4 190.18-6.05 189.28-5.05L189.28-5.05Q188.03-3.65 187.63-2.9 187.23-2.15 187.23-2.15L187.23-2.15Q186.83-1.6 186.33-1.6L186.33-1.6Q185.88-1.6 185.58-2.08 185.28-2.55 185.43-3.35L185.43-3.35Q186.13-7.45 186.95-10.35 187.78-13.25 188.88-15.35L188.88-15.35Q189.33-16.15 190.13-16.15L190.13-16.15Q190.58-16.15 190.93-15.83 191.28-15.5 191.28-14.85L191.28-14.85Q191.28-14.5 191-13.5 190.73-12.5 190.33-11.85L190.33-11.85Q189.83-11.05 189.5-10.03 189.18-9 188.73-7.2L188.73-7.2Q189.28-8.05 189.68-8.43 190.08-8.8 190.73-9.45L190.73-9.45Q192.78-11.5 195.6-13.18 198.43-14.85 201.03-16L201.03-16Q201.58-16.25 202.43-16.5 203.28-16.75 204.13-16.75L204.13-16.75Q205.13-16.75 205.93-16.2 206.73-15.65 206.73-14.1L206.73-14.1Q206.73-13.3 206.45-12.15 206.18-11 205.53-9.45L205.53-9.45Q204.73-7.6 204.5-5.6 204.28-3.6 204.28-2.2L204.28-2.2Q204.28-1.8 204.3-1.43 204.33-1.05 204.33-0.75L204.33-0.75Q204.33-0.25 204.18 0.08 204.03 0.4 203.53 0.4ZM217.68-0.45L217.68-0.45Q214.93-0.45 212.9-1.4 210.88-2.35 209.75-3.88 208.63-5.4 208.63-7.15L208.63-7.15Q208.63-8.05 208.95-9 209.28-9.95 209.98-10.8L209.98-10.8Q210.88-11.95 212.25-13.3 213.63-14.65 215.4-15.85 217.18-17.05 219.33-17.82 221.48-18.6 223.93-18.6L223.93-18.6Q225.73-18.6 226.4-18.3 227.08-18 227.33-17.53 227.58-17.05 227.93-16.6L227.93-16.6Q228.53-18.5 229.33-20.6 230.13-22.7 230.88-24.55 231.63-26.4 232.08-27.55L232.08-27.55Q232.38-28.2 232.8-29.13 233.23-30.05 233.55-30.78 233.88-31.5 233.88-31.5L233.88-31.5Q234.23-32.35 235.18-32.35L235.18-32.35Q235.88-32.35 236.48-31.85 237.08-31.35 237.08-30.65L237.08-30.65Q237.08-30.15 236.68-29.6L236.68-29.6 236.63-29.6Q236.63-29.6 236.18-29.13 235.73-28.65 235.2-27.95 234.68-27.25 234.43-26.65L234.43-26.65Q233.83-25.15 232.95-23.13 232.08-21.1 231.18-18.7 230.28-16.3 229.6-13.83 228.93-11.35 228.78-8.95L228.78-8.95Q228.73-8.6 228.43-8.4 228.13-8.2 227.73-8.2L227.73-8.2Q227.18-8.2 226.73-8.47 226.28-8.75 226.38-9.25L226.38-9.25Q226.63-9.95 226.7-10.68 226.78-11.4 226.78-12.05L226.78-12.05Q226.78-13.45 226.35-14.48 225.93-15.5 225.03-15.75L225.03-15.75Q224.63-15.9 224.18-15.95 223.73-16 223.28-16L223.28-16Q221.68-16 220.03-15.28 218.38-14.55 216.9-13.43 215.43-12.3 214.23-11.1 213.03-9.9 212.33-8.9L212.33-8.9Q211.63-7.95 211.63-6.85L211.63-6.85Q211.63-5.55 212.88-4.38 214.13-3.2 217.18-2.95L217.18-2.95Q217.43-2.9 217.68-2.9 217.93-2.9 218.23-2.9L218.23-2.9Q220.28-2.9 222.5-3.43 224.73-3.95 226.43-4.65L226.43-4.65Q227.78-5.2 228.83-5.95 229.88-6.7 230.68-7.4L230.68-7.4Q231.08-7.75 231.53-7.75L231.53-7.75Q231.98-7.75 232.3-7.43 232.63-7.1 232.63-6.7L232.63-6.7Q232.63-6.2 232.18-5.8L232.18-5.8Q231.38-5.1 230.15-4.13 228.93-3.15 227.23-2.45L227.23-2.45Q225.23-1.65 222.58-1.05 219.93-0.45 217.68-0.45Z" opacity="1" transform="matrix(1,0,0,1,0,0)" fill="#b2f042" class="slogan-text-1" data-fill-palette-color="secondary" id="text-1"></path></svg></g></svg></g></svg></g></svg></g><g transform="matrix(1,0,0,1,0,21.587115937943395)"><svg viewBox="0 0 244.43136 278.10119726290503" height="278.10119726290503" width="244.43136"><g><svg xmlns="http://www.w3.org/2000/svg" xmlns:xlink="http://www.w3.org/1999/xlink" version="1.1" x="8" y="0" viewBox="2.225800210941924 0 19.549237549165987 23.8" style="enable-background:new 0 0 24 24;" xml:space="preserve" height="278.10119726290503" width="228.43136" class="icon-icon-0" data-fill-palette-color="accent" id="icon-0"><g fill="#141414" data-fill-palette-color="accent"><path d="M21.512 12.394S20.19 10.24 19.963 9.748C19.735 9.257 19.811 8.539 19.963 8.01 20.113 7.481 19.963 6.725 19.963 6.725 18.64 0.907 13.501 0 10.969 0S3.563 1.02 2.467 6.575C1.385 12.06 4.232 14.898 5.301 16.663 5.744 17.395 5.584 19.453 5.344 20.726L13.777 23.8C13.89 23.212 13.955 22.734 13.955 22.369 13.955 19.459 16.109 19.723 18.074 19.61S20.057 18.911 20.039 18.363C20.019 17.815 20.19 17.456 20.549 16.909 20.908 16.36 20.342 16.096 20.342 16.096 20.984 16.057 20.569 15.34 20.569 15.34S19.965 14.205 21.135 13.942C22.306 13.679 21.512 12.394 21.512 12.394M10.251 13.792C3.072 14.17 3.563 8.2 3.563 8.2 4.206 1.889 9.307 1.473 9.307 1.473 17.393 0.567 18.527 5.516 18.753 7.368 18.935 8.849 17.431 13.414 10.251 13.792" fill="#141414" data-fill-palette-color="accent"></path><path d="M12.297 7.397A0.27 0.27 0 0 0 11.968 7.174L11.704 7.216A3.2 3.2 0 0 0 11.279 6.048L11.508 5.909A0.267 0.267 0 0 0 11.618 5.528 3.95 3.95 0 0 0 10.157 4.303 0.27 0.27 0 0 0 9.799 4.475L9.703 4.722A3.2 3.2 0 0 0 8.479 4.505L8.473 4.241A0.27 0.27 0 0 0 8.199 3.956 3.9 3.9 0 0 0 6.404 4.606 0.27 0.27 0 0 0 6.376 5.003L6.545 5.212C6.223 5.471 5.95 5.792 5.746 6.164L5.511 6.034A0.265 0.265 0 0 0 5.126 6.129 3.96 3.96 0 0 0 4.794 8.007 0.27 0.27 0 0 0 5.123 8.23L5.388 8.188C5.452 8.607 5.598 9.003 5.813 9.356L5.583 9.494A0.27 0.27 0 0 0 5.473 9.877 3.94 3.94 0 0 0 6.933 11.102 0.27 0.27 0 0 0 7.291 10.928L7.387 10.681C7.578 10.757 7.779 10.813 7.989 10.85S8.407 10.903 8.612 10.897L8.617 11.162A0.27 0.27 0 0 0 8.893 11.448 3.9 3.9 0 0 0 10.686 10.797 0.27 0.27 0 0 0 10.771 10.494 0.3 0.3 0 0 0 10.713 10.4L10.546 10.192A3.2 3.2 0 0 0 11.346 9.241L11.58 9.37A0.27 0.27 0 0 0 11.966 9.274 4 4 0 0 0 12.297 7.395zM10.289 8.011A1.773 1.773 0 0 1 8.238 9.446C7.277 9.276 6.633 8.356 6.802 7.395S7.893 5.789 8.854 5.958A1.776 1.776 0 0 1 10.289 8.011" fill="#141414" data-fill-palette-color="accent"></path><polygon points="6.934,11.104 6.933,11.103 6.933,11.103  " fill="#141414" data-fill-palette-color="accent"></polygon><polygon points="8.894,11.45 8.893,11.449 8.892,11.449  " fill="#141414" data-fill-palette-color="accent"></polygon><circle cx="8.545" cy="7.702" r="1.0" fill="#141414" data-fill-palette-color="accent"></circle><path d="M16.252 4.29A0.15 0.15 0 0 0 16.082 4.243 0.14 0.14 0 0 0 16.03 4.277L15.85 4.423A1.7 1.7 0 0 0 15.617 4.187 1.7 1.7 0 0 0 15.341 4.002L15.449 3.798A0.13 0.13 0 0 0 15.471 3.74 0.15 0.15 0 0 0 15.393 3.583 2.2 2.2 0 0 0 14.342 3.409 0.15 0.15 0 0 0 14.219 3.593L14.257 3.823A1.7 1.7 0 0 0 13.637 4.055L13.514 3.857A0.2 0.2 0 0 0 13.477 3.809 0.15 0.15 0 0 0 13.3 3.798H13.301A2.2 2.2 0 0 0 12.623 4.621 0.15 0.15 0 0 0 12.723 4.818L12.939 4.901C12.862 5.111 12.825 5.332 12.832 5.552L12.601 5.558C12.581 5.558 12.561 5.56 12.54 5.567A0.15 0.15 0 0 0 12.444 5.714 2.2 2.2 0 0 0 12.816 6.712C12.856 6.761 12.924 6.782 12.987 6.758A0.2 0.2 0 0 0 13.037 6.725L13.216 6.579A1.7 1.7 0 0 0 13.726 6.999L13.62 7.205A0.2 0.2 0 0 0 13.599 7.262 0.15 0.15 0 0 0 13.676 7.42 2.2 2.2 0 0 0 14.729 7.594 0.15 0.15 0 0 0 14.854 7.471 0.14 0.14 0 0 0 14.849 7.409L14.812 7.181C15.029 7.145 15.241 7.068 15.432 6.951L15.553 7.146C15.562 7.166 15.576 7.181 15.592 7.194A0.15 0.15 0 0 0 15.766 7.205V7.206A2.1 2.1 0 0 0 16.443 6.382 0.15 0.15 0 0 0 16.399 6.213 0.2 0.2 0 0 0 16.344 6.184L16.127 6.104C16.207 5.891 16.242 5.669 16.234 5.449L16.467 5.441A0.15 0.15 0 0 0 16.626 5.286 2.2 2.2 0 0 0 16.252 4.29M15.335 6.162A1.036 1.036 0 0 1 13.876 6.302 1.036 1.036 0 1 1 15.193 4.702C15.635 5.066 15.7 5.72 15.335 6.162" fill="#141414" data-fill-palette-color="accent"></path><path d="M15.618 9.177A0.13 0.13 0 0 0 15.472 9.136 0.1 0.1 0 0 0 15.428 9.165L15.274 9.29A1.5 1.5 0 0 0 15.074 9.087 1.5 1.5 0 0 0 14.837 8.929L14.93 8.753A0.1 0.1 0 0 0 14.95 8.704 0.13 0.13 0 0 0 14.882 8.569 2 2 0 0 0 14.442 8.437 2 2 0 0 0 13.981 8.419 0.125 0.125 0 0 0 13.874 8.525 0.1 0.1 0 0 0 13.876 8.576L13.908 8.774C13.72 8.804 13.541 8.871 13.377 8.974L13.272 8.804A0.13 0.13 0 0 0 13.088 8.753 1.86 1.86 0 0 0 12.507 9.46 0.13 0.13 0 0 0 12.547 9.605 0.1 0.1 0 0 0 12.593 9.629L12.779 9.7A1.5 1.5 0 0 0 12.687 10.259L12.488 10.265A0.2 0.2 0 0 0 12.436 10.272 0.13 0.13 0 0 0 12.354 10.398C12.369 10.547 12.405 10.698 12.46 10.846S12.588 11.13 12.673 11.255A0.13 0.13 0 0 0 12.819 11.295 0.1 0.1 0 0 0 12.863 11.266L13.016 11.141A1.5 1.5 0 0 0 13.454 11.502L13.361 11.677A0.13 0.13 0 0 0 13.407 11.862 1.9 1.9 0 0 0 14.31 12.011 0.124 0.124 0 0 0 14.417 11.906 0.1 0.1 0 0 0 14.414 11.853L14.383 11.657C14.569 11.627 14.75 11.56 14.914 11.46L15.018 11.627C15.026 11.645 15.039 11.657 15.052 11.669A0.125 0.125 0 0 0 15.2 11.679 1.85 1.85 0 0 0 15.781 10.973 0.126 0.126 0 0 0 15.697 10.803L15.51 10.735C15.578 10.552 15.61 10.361 15.603 10.172L15.802 10.166C15.821 10.167 15.838 10.166 15.855 10.159A0.13 0.13 0 0 0 15.939 10.033 1.9 1.9 0 0 0 15.618 9.177M14.831 10.784A0.891 0.891 0 1 1 13.457 9.649 0.891 0.891 0 0 1 14.83 10.784" fill="#141414" data-fill-palette-color="accent"></path><polygon points="15.201,11.68 15.2,11.68 15.2,11.681  " fill="#141414" data-fill-palette-color="accent"></polygon></g></svg></g></svg></g></svg></g><defs></defs></svg><rect width="395.52" height="165.1420551066421" fill="none" stroke="none" visibility="hidden"></rect></g></svg></g></svg>