<svg xmlns="http://www.w3.org/2000/svg" version="1.1" xmlns:xlink="http://www.w3.org/1999/xlink" xmlns:svgjs="http://svgjs.dev/svgjs" width="1500" height="1500" viewBox="0 0 1500 1500"><rect width="1500" height="1500" fill="#ffffff"></rect><g transform="matrix(0.6666666666666666,0,0,0.6666666666666666,249.39393939393938,438.58569500674764)"><svg viewBox="0 0 396 247" data-background-color="#ffffff" preserveAspectRatio="xMidYMid meet" height="935" width="1500" xmlns="http://www.w3.org/2000/svg" xmlns:xlink="http://www.w3.org/1999/xlink"><g id="tight-bounds" transform="matrix(1,0,0,1,0.2400000000000091,-0.09999999999999432)"><svg viewBox="0 0 395.52 247.2" height="247.2" width="395.52"><g><svg></svg></g><g><svg viewBox="0 0 395.52 247.2" height="247.2" width="395.52"><g transform="matrix(1,0,0,1,75.54432,101.2399093041563)"><svg viewBox="0 0 244.43135999999998 44.720181391687376" height="44.720181391687376" width="244.43135999999998"><g><svg viewBox="0 0 244.43135999999998 44.720181391687376" height="44.720181391687376" width="244.43135999999998"><g><svg viewBox="0 0 244.43135999999998 44.720181391687376" height="44.720181391687376" width="244.43135999999998"><g><svg viewBox="0 0 244.43135999999998 44.720181391687376" height="44.720181391687376" width="244.43135999999998"><g id="textblocktransform"><svg viewBox="0 0 244.43135999999998 44.720181391687376" height="44.720181391687376" width="244.43135999999998" id="textblock"><g><svg viewBox="0 0 244.43135999999998 24.119928952042624" height="24.119928952042624" width="244.43135999999998"><g transform="matrix(1,0,0,1,0,0)"><svg width="244.43135999999998" viewBox="2.25 -37.9 506.65 50" height="24.119928952042624" data-palette-color="#1d1f54"><path d="M19.3-5.5L19.3-21.4Q17.5-21.9 16.5-22.03 15.5-22.15 14.45-22.15L14.45-22.15Q12.35-22.15 10.85-21.4 9.35-20.65 8.38-19.33 7.4-18 6.95-16.28 6.5-14.55 6.5-12.6L6.5-12.6Q6.5-10.85 6.88-9.1 7.25-7.35 8.05-5.95 8.85-4.55 10-3.7 11.15-2.85 12.75-2.85L12.75-2.85Q13.85-2.85 15.03-3.25 16.2-3.65 17.2-4.17 18.2-4.7 19.3-5.5L19.3-5.5ZM19.75 0.4L19.35-2Q18.2-1.2 17.13-0.68 16.05-0.15 14.78 0.25 13.5 0.65 12.3 0.65L12.3 0.65Q7.6 0.65 4.93-2.68 2.25-6 2.25-12.4L2.25-12.4Q2.25-16.2 3.48-18.75 4.7-21.3 6.55-22.83 8.4-24.35 10.53-25 12.65-25.65 14.45-25.65L14.45-25.65Q15.35-25.65 16.35-25.53 17.35-25.4 19.3-24.9L19.3-24.9 19.3-37.45 23.3-37.9 23.3-4.55Q23.3-3.85 23.33-3.08 23.35-2.3 23.43-1.55 23.5-0.8 23.6 0L23.6 0 19.75 0.4ZM48.4-3.95L49.15-0.6Q48-0.25 46.77 0 45.55 0.25 44.07 0.45 42.6 0.65 41 0.65L41 0.65Q38.5 0.65 36.35-0.05 34.2-0.75 32.6-2.3 31-3.85 30.07-6.33 29.15-8.8 29.15-12.4L29.15-12.4Q29.15-15.65 30.05-18.13 30.95-20.6 32.52-22.28 34.1-23.95 36.22-24.8 38.35-25.65 40.85-25.65L40.85-25.65Q43.3-25.65 45.1-24.7 46.9-23.75 48.07-22.13 49.25-20.5 49.82-18.32 50.4-16.15 50.4-13.75L50.4-13.75 49.65-11.55 33.5-11.55Q33.5-10 33.9-8.45 34.3-6.9 35.27-5.65 36.25-4.4 37.82-3.63 39.4-2.85 41.75-2.85L41.75-2.85Q43.25-2.85 44.5-3.03 45.75-3.2 46.67-3.43 47.6-3.65 48.4-3.95L48.4-3.95ZM33.65-14.75L46.25-14.75Q46.25-15.1 46.1-16.3 45.95-17.5 45.4-18.8 44.85-20.1 43.7-21.13 42.55-22.15 40.65-22.15L40.65-22.15Q38.55-22.15 37.2-21.28 35.85-20.4 35.05-19.2 34.25-18 33.95-16.75 33.65-15.5 33.65-14.75L33.65-14.75ZM72.25-24.85L71.45-21.5Q70.59-21.7 69.09-21.93 67.59-22.15 66.05-22.15L66.05-22.15Q63.8-22.15 62.37-21.25 60.95-20.35 60.15-18.93 59.35-17.5 59.05-15.78 58.75-14.05 58.75-12.4L58.75-12.4Q58.75-9.85 59.4-8.03 60.05-6.2 61.12-5.05 62.2-3.9 63.6-3.38 65-2.85 66.55-2.85L66.55-2.85Q67.59-2.85 68.57-2.98 69.55-3.1 70.37-3.28 71.2-3.45 71.95-3.7L71.95-3.7 72.75-0.35Q71.7-0.05 70.8 0.15 69.9 0.35 68.67 0.5 67.45 0.65 66.05 0.65L66.05 0.65Q63.3 0.65 61.15-0.05 59-0.75 57.52-2.3 56.05-3.85 55.27-6.35 54.5-8.85 54.5-12.45L54.5-12.45Q54.5-15.95 55.47-18.48 56.45-21 58.05-22.58 59.65-24.15 61.72-24.9 63.8-25.65 66.05-25.65L66.05-25.65Q67.25-25.65 68.37-25.53 69.5-25.4 70.34-25.25L70.34-25.25Q71.34-25.05 72.25-24.85L72.25-24.85ZM77.69 0L77.69-25.2 81.69-25.65 81.69 0 77.69 0ZM77.04-32.35L77.04-32.35Q77.04-33.5 77.82-34.27 78.59-35.05 79.74-35.05L79.74-35.05Q80.94-35.05 81.77-34.27 82.59-33.5 82.59-32.35L82.59-32.35Q82.59-31.2 81.77-30.43 80.94-29.65 79.74-29.65L79.74-29.65Q78.59-29.65 77.82-30.43 77.04-31.2 77.04-32.35ZM103.19-24.6L102.49-21.05Q100.39-21.7 98.77-21.93 97.14-22.15 95.79-22.15L95.79-22.15Q94.04-22.15 92.87-21.3 91.69-20.45 91.69-19.1L91.69-19.1Q91.74-17.9 92.74-17.05 93.74-16.2 95.07-15.53 96.39-14.85 98.02-14.05 99.64-13.25 101.07-12.25 102.49-11.25 103.39-9.85 104.29-8.45 104.34-6.5L104.34-6.5Q104.29-4.4 103.42-3.03 102.54-1.65 101.17-0.83 99.79 0 98.19 0.33 96.59 0.65 95.19 0.65L95.19 0.65Q93.39 0.65 91.47 0.45 89.54 0.25 87.34-0.4L87.34-0.4 88.09-4Q90.34-3.4 92.19-3.13 94.04-2.85 95.24-2.85L95.24-2.85Q96.14-2.85 97.02-3.05 97.89-3.25 98.59-3.63 99.29-4 99.72-4.6 100.14-5.2 100.14-5.95L100.14-5.95Q100.09-7.35 99.19-8.33 98.29-9.3 96.87-10.08 95.44-10.85 93.82-11.63 92.19-12.4 90.77-13.43 89.34-14.45 88.39-15.88 87.44-17.3 87.44-19.4L87.44-19.4Q87.44-20.9 88.22-22.08 88.99-23.25 90.22-24.03 91.44-24.8 92.92-25.23 94.39-25.65 95.79-25.65L95.79-25.65Q97.24-25.65 99.04-25.43 100.84-25.2 103.19-24.6L103.19-24.6ZM109.74 0L109.74-25.2 113.74-25.65 113.74 0 109.74 0ZM109.09-32.35L109.09-32.35Q109.09-33.5 109.86-34.27 110.64-35.05 111.79-35.05L111.79-35.05Q112.99-35.05 113.81-34.27 114.64-33.5 114.64-32.35L114.64-32.35Q114.64-31.2 113.81-30.43 112.99-29.65 111.79-29.65L111.79-29.65Q110.64-29.65 109.86-30.43 109.09-31.2 109.09-32.35ZM123.79-12.45L123.79-12.45Q123.79-7.6 125.96-5.23 128.14-2.85 131.84-2.85L131.84-2.85Q135.49-2.85 137.54-5.2 139.59-7.55 139.59-12.25L139.59-12.25Q139.59-17.25 137.41-19.7 135.24-22.15 131.49-22.15L131.49-22.15Q127.74-22.15 125.76-19.73 123.79-17.3 123.79-12.45ZM119.54-12.5L119.54-12.5Q119.54-16.3 120.74-18.82 121.94-21.35 123.79-22.88 125.64-24.4 127.76-25.03 129.89-25.65 131.79-25.65L131.79-25.65Q133.59-25.65 135.71-25.08 137.84-24.5 139.64-23.03 141.44-21.55 142.64-19.07 143.84-16.6 143.84-12.8L143.84-12.8Q143.84-8.85 142.61-6.25 141.39-3.65 139.54-2.13 137.69-0.6 135.54 0.03 133.39 0.65 131.54 0.65L131.54 0.65Q129.64 0.65 127.54 0.05 125.44-0.55 123.66-2.02 121.89-3.5 120.71-6.05 119.54-8.6 119.54-12.5ZM149.68 0L149.68-20.15Q149.73-21.2 149.43-24.7L149.43-24.7 153.13-25.2 153.68-22Q155.18-23 156.66-23.75 158.13-24.5 159.68-25.08 161.23-25.65 162.68-25.65L162.68-25.65Q164.73-25.65 166.11-25.18 167.48-24.7 168.33-23.6 169.18-22.5 169.56-20.7 169.93-18.9 169.93-16.2L169.93-16.2 169.93 0 165.93 0 165.93-15.75Q165.93-17.25 165.88-18.43 165.83-19.6 165.46-20.43 165.08-21.25 164.31-21.7 163.53-22.15 162.13-22.15L162.13-22.15Q160.83-22.15 159.38-21.58 157.93-21 156.53-20.25 155.13-19.5 153.68-18.5L153.68-18.5 153.68 0 149.68 0ZM202.73-24.6L202.03-21.05Q199.93-21.7 198.3-21.93 196.68-22.15 195.33-22.15L195.33-22.15Q193.58-22.15 192.4-21.3 191.23-20.45 191.23-19.1L191.23-19.1Q191.28-17.9 192.28-17.05 193.28-16.2 194.6-15.53 195.93-14.85 197.55-14.05 199.18-13.25 200.6-12.25 202.03-11.25 202.93-9.85 203.83-8.45 203.88-6.5L203.88-6.5Q203.83-4.4 202.95-3.03 202.08-1.65 200.7-0.83 199.33 0 197.73 0.33 196.13 0.65 194.73 0.65L194.73 0.65Q192.93 0.65 191 0.45 189.08 0.25 186.88-0.4L186.88-0.4 187.63-4Q189.88-3.4 191.73-3.13 193.58-2.85 194.78-2.85L194.78-2.85Q195.68-2.85 196.55-3.05 197.43-3.25 198.13-3.63 198.83-4 199.25-4.6 199.68-5.2 199.68-5.95L199.68-5.95Q199.63-7.35 198.73-8.33 197.83-9.3 196.4-10.08 194.98-10.85 193.35-11.63 191.73-12.4 190.3-13.43 188.88-14.45 187.93-15.88 186.98-17.3 186.98-19.4L186.98-19.4Q186.98-20.9 187.75-22.08 188.53-23.25 189.75-24.03 190.98-24.8 192.45-25.23 193.93-25.65 195.33-25.65L195.33-25.65Q196.78-25.65 198.58-25.43 200.38-25.2 202.73-24.6L202.73-24.6ZM224.63 0.4L224.33-2.75 224.23-2.75Q223.78-2.4 222.93-1.83 222.08-1.25 220.98-0.7 219.88-0.15 218.55 0.25 217.23 0.65 215.88 0.65L215.88 0.65Q214.03 0.65 212.73 0.18 211.43-0.3 210.63-1.4 209.83-2.5 209.48-4.3 209.13-6.1 209.13-8.8L209.13-8.8 209.13-25.15 213.13-25.15 213.13-9.4Q213.13-7.9 213.18-6.7 213.23-5.5 213.53-4.65 213.83-3.8 214.5-3.33 215.18-2.85 216.43-2.85L216.43-2.85Q217.73-2.85 219.13-3.4 220.53-3.95 221.68-4.65L221.68-4.65Q223.03-5.45 224.33-6.45L224.33-6.45 224.33-25.15 228.33-25.15 228.33-3.25Q228.38-1.45 228.58 0L228.58 0 224.63 0.4ZM235.62 11.4L235.62-19.35Q235.62-21.15 235.37-24.7L235.37-24.7 239.07-25.2 239.52-22.5Q240.52-23.35 241.6-24.03 242.67-24.7 243.95-25.18 245.22-25.65 246.67-25.65L246.67-25.65Q248.72-25.65 250.55-24.95 252.37-24.25 253.75-22.7 255.12-21.15 255.92-18.68 256.72-16.2 256.72-12.6L256.72-12.6Q256.72-8.95 255.65-6.43 254.57-3.9 252.85-2.33 251.12-0.75 248.95-0.05 246.77 0.65 244.52 0.65L244.52 0.65Q242.12 0.6 239.62 0.05L239.62 0.05 239.62 10.9 235.62 11.4ZM244.52-2.85L244.52-2.85Q246.62-2.85 248.12-3.6 249.62-4.35 250.6-5.68 251.57-7 252.02-8.72 252.47-10.45 252.47-12.4L252.47-12.4Q252.47-14.15 252.15-15.9 251.82-17.65 251.1-19.03 250.37-20.4 249.17-21.28 247.97-22.15 246.22-22.15L246.22-22.15Q244.92-22.15 243.77-21.68 242.62-21.2 241.6-20.53 240.57-19.85 239.62-19L239.62-19 239.62-3.65Q240.17-3.45 240.85-3.28 241.52-3.1 242.45-2.98 243.37-2.85 244.52-2.85ZM262.62 11.4L262.62-19.35Q262.62-21.15 262.37-24.7L262.37-24.7 266.07-25.2 266.52-22.5Q267.52-23.35 268.6-24.03 269.67-24.7 270.95-25.18 272.22-25.65 273.67-25.65L273.67-25.65Q275.72-25.65 277.55-24.95 279.37-24.25 280.75-22.7 282.12-21.15 282.92-18.68 283.72-16.2 283.72-12.6L283.72-12.6Q283.72-8.95 282.65-6.43 281.57-3.9 279.85-2.33 278.12-0.75 275.95-0.05 273.77 0.65 271.52 0.65L271.52 0.65Q269.12 0.6 266.62 0.05L266.62 0.05 266.62 10.9 262.62 11.4ZM271.52-2.85L271.52-2.85Q273.62-2.85 275.12-3.6 276.62-4.35 277.6-5.68 278.57-7 279.02-8.72 279.47-10.45 279.47-12.4L279.47-12.4Q279.47-14.15 279.15-15.9 278.82-17.65 278.1-19.03 277.37-20.4 276.17-21.28 274.97-22.15 273.22-22.15L273.22-22.15Q271.92-22.15 270.77-21.68 269.62-21.2 268.6-20.53 267.57-19.85 266.62-19L266.62-19 266.62-3.65Q267.17-3.45 267.85-3.28 268.52-3.1 269.45-2.98 270.37-2.85 271.52-2.85ZM292.42-12.45L292.42-12.45Q292.42-7.6 294.59-5.23 296.77-2.85 300.47-2.85L300.47-2.85Q304.12-2.85 306.17-5.2 308.22-7.55 308.22-12.25L308.22-12.25Q308.22-17.25 306.04-19.7 303.87-22.15 300.12-22.15L300.12-22.15Q296.37-22.15 294.39-19.73 292.42-17.3 292.42-12.45ZM288.17-12.5L288.17-12.5Q288.17-16.3 289.37-18.82 290.57-21.35 292.42-22.88 294.27-24.4 296.39-25.03 298.52-25.65 300.42-25.65L300.42-25.65Q302.22-25.65 304.34-25.08 306.47-24.5 308.27-23.03 310.07-21.55 311.27-19.07 312.47-16.6 312.47-12.8L312.47-12.8Q312.47-8.85 311.24-6.25 310.02-3.65 308.17-2.13 306.32-0.6 304.17 0.03 302.02 0.65 300.17 0.65L300.17 0.65Q298.27 0.65 296.17 0.05 294.07-0.55 292.29-2.02 290.52-3.5 289.34-6.05 288.17-8.6 288.17-12.5ZM318.31 0L318.31-21.1Q318.31-22.25 318.06-24.7L318.06-24.7 321.77-25.2 322.17-21.55 322.22-21.55Q323.12-22.7 323.97-23.55 324.81-24.4 325.74-25.03 326.67-25.65 327.52-25.65L327.52-25.65Q328.67-25.7 330.72-25.4L330.72-25.4 329.81-21.55Q328.17-21.85 327.52-21.8L327.52-21.8Q326.67-21.8 325.72-21 324.77-20.2 324.06-19.3L324.06-19.3Q323.17-18.2 322.31-16.8L322.31-16.8 322.31 0 318.31 0ZM336.96-32.15L340.96-32.65 340.96-25.15 348.21-25.15 348.21-21.9 340.96-21.9 340.96-8.55Q340.96-6.9 341.04-5.8 341.11-4.7 341.36-4.05 341.61-3.4 342.06-3.13 342.51-2.85 343.21-2.85L343.21-2.85Q345.11-2.9 347.61-4.25L347.61-4.25 348.81-1.2Q347.16-0.1 345.74 0.28 344.31 0.65 342.91 0.65L342.91 0.65Q339.61 0.65 338.29-1.23 336.96-3.1 336.96-7.45L336.96-7.45 336.96-21.9 332.36-21.9 332.36-25.15 336.96-25.15 336.96-32.15ZM379.06-24.6L378.36-21.05Q376.26-21.7 374.63-21.93 373.01-22.15 371.66-22.15L371.66-22.15Q369.91-22.15 368.73-21.3 367.56-20.45 367.56-19.1L367.56-19.1Q367.61-17.9 368.61-17.05 369.61-16.2 370.93-15.53 372.26-14.85 373.88-14.05 375.51-13.25 376.93-12.25 378.36-11.25 379.26-9.85 380.16-8.45 380.21-6.5L380.21-6.5Q380.16-4.4 379.28-3.03 378.41-1.65 377.03-0.83 375.66 0 374.06 0.33 372.46 0.65 371.06 0.65L371.06 0.65Q369.26 0.65 367.33 0.45 365.41 0.25 363.21-0.4L363.21-0.4 363.96-4Q366.21-3.4 368.06-3.13 369.91-2.85 371.11-2.85L371.11-2.85Q372.01-2.85 372.88-3.05 373.76-3.25 374.46-3.63 375.16-4 375.58-4.6 376.01-5.2 376.01-5.95L376.01-5.95Q375.96-7.35 375.06-8.33 374.16-9.3 372.73-10.08 371.31-10.85 369.68-11.63 368.06-12.4 366.63-13.43 365.21-14.45 364.26-15.88 363.31-17.3 363.31-19.4L363.31-19.4Q363.31-20.9 364.08-22.08 364.86-23.25 366.08-24.03 367.31-24.8 368.78-25.23 370.26-25.65 371.66-25.65L371.66-25.65Q373.11-25.65 374.91-25.43 376.71-25.2 379.06-24.6L379.06-24.6ZM392.41-0.65L382.36-25.15 386.61-25.15 391.31-13.8Q392.01-12.15 392.58-10.5 393.16-8.85 393.61-7.55L393.61-7.55Q394.16-6 394.56-4.55L394.56-4.55 394.61-4.55Q395.06-6 395.61-7.55L395.61-7.55Q396.06-8.85 396.66-10.5 397.26-12.15 397.91-13.8L397.91-13.8 402.26-25.15 406.46-25.15 394.56 4.85Q393.86 6.7 392.73 8.05 391.61 9.4 390.56 10.3L390.56 10.3Q389.31 11.35 387.96 12.1L387.96 12.1 386.01 8.65Q387.06 8.15 387.96 7.4L387.96 7.4Q388.76 6.75 389.56 5.78 390.36 4.8 390.86 3.45L390.86 3.45 392.41-0.65ZM424.75-24.6L424.05-21.05Q421.95-21.7 420.33-21.93 418.7-22.15 417.35-22.15L417.35-22.15Q415.6-22.15 414.43-21.3 413.25-20.45 413.25-19.1L413.25-19.1Q413.3-17.9 414.3-17.05 415.3-16.2 416.63-15.53 417.95-14.85 419.58-14.05 421.2-13.25 422.63-12.25 424.05-11.25 424.95-9.85 425.85-8.45 425.9-6.5L425.9-6.5Q425.85-4.4 424.98-3.03 424.1-1.65 422.73-0.83 421.35 0 419.75 0.33 418.15 0.65 416.75 0.65L416.75 0.65Q414.95 0.65 413.03 0.45 411.1 0.25 408.9-0.4L408.9-0.4 409.65-4Q411.9-3.4 413.75-3.13 415.6-2.85 416.8-2.85L416.8-2.85Q417.7-2.85 418.58-3.05 419.45-3.25 420.15-3.63 420.85-4 421.28-4.6 421.7-5.2 421.7-5.95L421.7-5.95Q421.65-7.35 420.75-8.33 419.85-9.3 418.43-10.08 417-10.85 415.38-11.63 413.75-12.4 412.33-13.43 410.9-14.45 409.95-15.88 409-17.3 409-19.4L409-19.4Q409-20.9 409.78-22.08 410.55-23.25 411.78-24.03 413-24.8 414.48-25.23 415.95-25.65 417.35-25.65L417.35-25.65Q418.8-25.65 420.6-25.43 422.4-25.2 424.75-24.6L424.75-24.6ZM433.15-32.15L437.15-32.65 437.15-25.15 444.4-25.15 444.4-21.9 437.15-21.9 437.15-8.55Q437.15-6.9 437.23-5.8 437.3-4.7 437.55-4.05 437.8-3.4 438.25-3.13 438.7-2.85 439.4-2.85L439.4-2.85Q441.3-2.9 443.8-4.25L443.8-4.25 445-1.2Q443.35-0.1 441.93 0.28 440.5 0.65 439.1 0.65L439.1 0.65Q435.8 0.65 434.48-1.23 433.15-3.1 433.15-7.45L433.15-7.45 433.15-21.9 428.55-21.9 428.55-25.15 433.15-25.15 433.15-32.15ZM467.15-3.95L467.9-0.6Q466.75-0.25 465.52 0 464.3 0.25 462.82 0.45 461.35 0.65 459.75 0.65L459.75 0.65Q457.25 0.65 455.1-0.05 452.95-0.75 451.35-2.3 449.75-3.85 448.82-6.33 447.9-8.8 447.9-12.4L447.9-12.4Q447.9-15.65 448.8-18.13 449.7-20.6 451.27-22.28 452.85-23.95 454.97-24.8 457.1-25.65 459.6-25.65L459.6-25.65Q462.05-25.65 463.85-24.7 465.65-23.75 466.82-22.13 468-20.5 468.57-18.32 469.15-16.15 469.15-13.75L469.15-13.75 468.4-11.55 452.25-11.55Q452.25-10 452.65-8.45 453.05-6.9 454.02-5.65 455-4.4 456.57-3.63 458.15-2.85 460.5-2.85L460.5-2.85Q462-2.85 463.25-3.03 464.5-3.2 465.42-3.43 466.35-3.65 467.15-3.95L467.15-3.95ZM452.4-14.75L465-14.75Q465-15.1 464.85-16.3 464.7-17.5 464.15-18.8 463.6-20.1 462.45-21.13 461.3-22.15 459.4-22.15L459.4-22.15Q457.3-22.15 455.95-21.28 454.6-20.4 453.8-19.2 453-18 452.7-16.75 452.4-15.5 452.4-14.75L452.4-14.75ZM474.65 0L474.65-20.6Q474.65-22.3 474.35-24.7L474.35-24.7 478.1-25.2 478.65-22.05Q480-23.05 481.3-23.8 482.6-24.55 484.1-25.1 485.6-25.65 487.15-25.65L487.15-25.65Q489.65-25.65 491.1-24.78 492.55-23.9 493.25-21.8L493.25-21.8Q495.3-23.25 497.52-24.45 499.75-25.65 502.15-25.65L502.15-25.65Q504-25.65 505.3-25.18 506.6-24.7 507.4-23.6 508.2-22.5 508.55-20.7 508.9-18.9 508.9-16.2L508.9-16.2 508.9 0 504.9 0 504.9-15.75Q504.9-17.25 504.85-18.43 504.8-19.6 504.5-20.43 504.2-21.25 503.52-21.7 502.85-22.15 501.6-22.15L501.6-22.15Q500.45-22.15 499.42-21.83 498.4-21.5 497.3-20.9 496.2-20.3 493.9-18.45L493.9-18.45 493.9 0 489.9 0 489.9-15.75Q489.9-17.25 489.85-18.43 489.8-19.6 489.5-20.43 489.2-21.25 488.52-21.7 487.85-22.15 486.6-22.15L486.6-22.15Q485.3-22.15 483.9-21.6 482.5-21.05 481.25-20.3 480-19.55 478.65-18.55L478.65-18.55 478.65 0 474.65 0Z" opacity="1" transform="matrix(1,0,0,1,0,0)" fill="#1d1f54" class="wordmark-text-0" data-fill-palette-color="primary" id="text-0"></path></svg></g></svg></g><g transform="matrix(1,0,0,1,0,29.814065299325037)"><svg viewBox="0 0 244.43135999999998 14.90611609236234" height="14.90611609236234" width="244.43135999999998"><g transform="matrix(1,0,0,1,0,0)"><svg width="244.43135999999998" viewBox="2.55 -38.7 814.98 49.7" height="14.90611609236234" data-palette-color="#000000"><path d="M2.9-24.2L9.6-25.45 9-13 9.55-1.25 2.85 0 3.45-12.15 2.9-24.2ZM2.55-32.77Q2.55-34.45 3.85-35.77 5.15-37.1 6.85-37.1 8.55-37.1 9.45-36.18 10.35-35.25 10.35-33.4 10.35-31.55 9.08-30.23 7.8-28.9 6.13-28.9 4.45-28.9 3.5-30 2.55-31.1 2.55-32.77ZM55.57-12.65Q55.57-16.1 54.97-17.25 54.37-18.4 52.17-18.4 49.97-18.4 47.17-16.65L47.17-16.65 47.17-13 47.72-1.25 41.02 0 41.62-12.15Q41.42-18.85 40.52-24.15L40.52-24.15 46.57-25.45Q46.92-22.55 47.07-19.8L47.07-19.8Q47.82-20.8 48.77-21.78 49.72-22.75 51.77-23.98 53.82-25.2 56.09-25.2 58.37-25.2 59.92-23.43 61.47-21.65 61.47-18.6L61.47-18.6 61.17-13 61.72-1 54.97 0.25 55.57-12.65ZM100.74-4.65L100.74-4.65Q103.34-4.65 103.34-6.95L103.34-6.95Q103.34-7.75 102.21-8.45 101.09-9.15 99.46-9.85 97.84-10.55 96.21-11.43 94.59-12.3 93.46-13.85 92.34-15.4 92.34-17.4L92.34-17.4Q92.34-20.75 95.29-23.25 98.24-25.75 102.09-25.75L102.09-25.75Q103.89-25.75 105.61-25.33 107.34-24.9 108.94-24L108.94-24 105.59-17.9Q105.24-18.2 104.69-18.65 104.14-19.1 102.61-19.83 101.09-20.55 99.91-20.55 98.74-20.55 98.11-20.03 97.49-19.5 97.49-18.57 97.49-17.65 99.21-16.73 100.94-15.8 102.99-15.03 105.04-14.25 106.76-12.48 108.49-10.7 108.49-8.25L108.49-8.25Q108.49-4.75 105.61-2.1 102.74 0.55 98.99 0.55L98.99 0.55Q96.59 0.55 94.51-0.5 92.44-1.55 91.54-2.6L91.54-2.6 90.64-3.65 94.59-8.25Q94.89-7.85 95.44-7.25 95.99-6.65 97.61-5.65 99.24-4.65 100.74-4.65ZM138.86-24.2L145.56-25.45 144.96-13 145.51-1.25 138.81 0 139.41-12.15 138.86-24.2ZM138.51-32.77Q138.51-34.45 139.81-35.77 141.11-37.1 142.81-37.1 144.51-37.1 145.41-36.18 146.31-35.25 146.31-33.4 146.31-31.55 145.03-30.23 143.76-28.9 142.08-28.9 140.41-28.9 139.46-30 138.51-31.1 138.51-32.77ZM175.27 4.95L175.27 4.95Q175.27 0.55 183.47-1.95L183.47-1.95Q181.52-2.95 181.52-4.55L181.52-4.55Q181.52-5.2 182.02-5.85 182.52-6.5 183.47-7.2L183.47-7.2 183.47-7.6Q179.87-7.6 177.75-9.6 175.62-11.6 175.62-14.95L175.62-14.95Q175.62-19.3 179.17-22.53 182.72-25.75 187.57-25.75L187.57-25.75Q188.82-25.75 191.22-25.25 193.62-24.75 195.92-24.75L195.92-24.75 199.77-24.75 199.27-20.4 195.52-20.85Q196.02-19.4 196.02-17.55 196.02-15.7 195.15-13.88 194.27-12.05 193.05-10.95 191.82-9.85 190.6-9.03 189.37-8.2 188.5-7.58 187.62-6.95 187.62-6.45L187.62-6.45Q187.62-5.5 189.62-4.8L189.62-4.8Q194.92-2.65 196.8-1.15 198.67 0.35 198.67 2.55L198.67 2.55Q198.67 6.25 194.95 8.63 191.22 11 186.07 11 180.92 11 178.1 9.35 175.27 7.7 175.27 4.95ZM190.37-16.05L190.37-16.05Q190.37-18.5 189.27-19.65 188.17-20.8 185.82-20.8L185.82-20.8Q181.27-20.8 181.27-16.32 181.27-11.85 186.12-11.85L186.12-11.85Q190.37-11.85 190.37-16.05ZM192.17 3.3L192.17 3.3Q192.17 2.4 191.22 1.63 190.27 0.85 187.82-0.2L187.82-0.2Q184.17 0.8 182.8 1.65 181.42 2.5 181.42 3.75 181.42 5 182.8 5.78 184.17 6.55 186.62 6.55 189.07 6.55 190.62 5.65 192.17 4.75 192.17 3.3ZM242.99-12.65Q242.99-16.1 242.39-17.25 241.79-18.4 239.59-18.4 237.39-18.4 234.59-16.65L234.59-16.65 234.59-13 235.14-1.25 228.39 0 228.99-12.15 228.39-37.45 235.24-38.7 234.59-25.75 234.59-19.9Q235.34-20.9 236.29-21.85 237.24-22.8 239.24-24 241.24-25.2 243.52-25.2 245.79-25.2 247.34-23.43 248.89-21.65 248.89-18.6L248.89-18.6 248.59-13 249.14-1 242.39 0.25 242.99-12.65ZM279.66-24.2L282.56-24.2 282.56-29.65 289.31-30.95 288.66-24.2 294.71-24.2 294.16-20.1 288.46-20.1 288.21-9.65Q288.21-7.3 288.66-6.53 289.11-5.75 290.31-5.75 291.51-5.75 293.51-6.3L293.51-6.3 293.81-2.75Q290.51 0 288.01 0 285.51 0 283.91-1.83 282.31-3.65 282.31-6.6L282.31-6.6 282.61-12.2 282.56-20.1 279.11-20.1 279.66-24.2ZM331.88-4.65L331.88-4.65Q334.48-4.65 334.48-6.95L334.48-6.95Q334.48-7.75 333.35-8.45 332.23-9.15 330.6-9.85 328.98-10.55 327.35-11.43 325.73-12.3 324.6-13.85 323.48-15.4 323.48-17.4L323.48-17.4Q323.48-20.75 326.43-23.25 329.38-25.75 333.23-25.75L333.23-25.75Q335.03-25.75 336.75-25.33 338.48-24.9 340.08-24L340.08-24 336.73-17.9Q336.38-18.2 335.83-18.65 335.28-19.1 333.75-19.83 332.23-20.55 331.05-20.55 329.88-20.55 329.25-20.03 328.63-19.5 328.63-18.57 328.63-17.65 330.35-16.73 332.08-15.8 334.13-15.03 336.18-14.25 337.9-12.48 339.63-10.7 339.63-8.25L339.63-8.25Q339.63-4.75 336.75-2.1 333.88 0.55 330.13 0.55L330.13 0.55Q327.73 0.55 325.65-0.5 323.58-1.55 322.68-2.6L322.68-2.6 321.78-3.65 325.73-8.25Q326.03-7.85 326.58-7.25 327.13-6.65 328.75-5.65 330.38-4.65 331.88-4.65ZM403.67-24.2L410.37-25.45 409.77-13 410.32-1.25 403.62 0 404.22-12.15 403.67-24.2ZM403.32-32.77Q403.32-34.45 404.62-35.77 405.92-37.1 407.62-37.1 409.32-37.1 410.22-36.18 411.12-35.25 411.12-33.4 411.12-31.55 409.84-30.23 408.57-28.9 406.89-28.9 405.22-28.9 404.27-30 403.32-31.1 403.32-32.77ZM456.34-12.65Q456.34-16.1 455.74-17.25 455.14-18.4 452.94-18.4 450.74-18.4 447.94-16.65L447.94-16.65 447.94-13 448.49-1.25 441.79 0 442.39-12.15Q442.19-18.85 441.29-24.15L441.29-24.15 447.34-25.45Q447.69-22.55 447.84-19.8L447.84-19.8Q448.59-20.8 449.54-21.78 450.49-22.75 452.54-23.98 454.59-25.2 456.86-25.2 459.14-25.2 460.69-23.43 462.24-21.65 462.24-18.6L462.24-18.6 461.94-13 462.49-1 455.74 0.25 456.34-12.65ZM501.5-4.65L501.5-4.65Q504.1-4.65 504.1-6.95L504.1-6.95Q504.1-7.75 502.98-8.45 501.85-9.15 500.23-9.85 498.6-10.55 496.98-11.43 495.35-12.3 494.23-13.85 493.1-15.4 493.1-17.4L493.1-17.4Q493.1-20.75 496.05-23.25 499-25.75 502.85-25.75L502.85-25.75Q504.65-25.75 506.38-25.33 508.1-24.9 509.7-24L509.7-24 506.35-17.9Q506-18.2 505.45-18.65 504.9-19.1 503.38-19.83 501.85-20.55 500.68-20.55 499.5-20.55 498.88-20.03 498.25-19.5 498.25-18.57 498.25-17.65 499.98-16.73 501.7-15.8 503.75-15.03 505.8-14.25 507.53-12.48 509.25-10.7 509.25-8.25L509.25-8.25Q509.25-4.75 506.38-2.1 503.5 0.55 499.75 0.55L499.75 0.55Q497.35 0.55 495.28-0.5 493.2-1.55 492.3-2.6L492.3-2.6 491.4-3.65 495.35-8.25Q495.65-7.85 496.2-7.25 496.75-6.65 498.38-5.65 500-4.65 501.5-4.65ZM539.62-24.2L546.32-25.45 545.72-13 546.27-1.25 539.57 0 540.17-12.15 539.62-24.2ZM539.27-32.77Q539.27-34.45 540.57-35.77 541.87-37.1 543.57-37.1 545.27-37.1 546.17-36.18 547.07-35.25 547.07-33.4 547.07-31.55 545.8-30.23 544.52-28.9 542.85-28.9 541.17-28.9 540.22-30 539.27-31.1 539.27-32.77ZM576.04 4.95L576.04 4.95Q576.04 0.55 584.24-1.95L584.24-1.95Q582.29-2.95 582.29-4.55L582.29-4.55Q582.29-5.2 582.79-5.85 583.29-6.5 584.24-7.2L584.24-7.2 584.24-7.6Q580.64-7.6 578.52-9.6 576.39-11.6 576.39-14.95L576.39-14.95Q576.39-19.3 579.94-22.53 583.49-25.75 588.34-25.75L588.34-25.75Q589.59-25.75 591.99-25.25 594.39-24.75 596.69-24.75L596.69-24.75 600.54-24.75 600.04-20.4 596.29-20.85Q596.79-19.4 596.79-17.55 596.79-15.7 595.92-13.88 595.04-12.05 593.82-10.95 592.59-9.85 591.37-9.03 590.14-8.2 589.27-7.58 588.39-6.95 588.39-6.45L588.39-6.45Q588.39-5.5 590.39-4.8L590.39-4.8Q595.69-2.65 597.57-1.15 599.44 0.35 599.44 2.55L599.44 2.55Q599.44 6.25 595.72 8.63 591.99 11 586.84 11 581.69 11 578.87 9.35 576.04 7.7 576.04 4.95ZM591.14-16.05L591.14-16.05Q591.14-18.5 590.04-19.65 588.94-20.8 586.59-20.8L586.59-20.8Q582.04-20.8 582.04-16.32 582.04-11.85 586.89-11.85L586.89-11.85Q591.14-11.85 591.14-16.05ZM592.94 3.3L592.94 3.3Q592.94 2.4 591.99 1.63 591.04 0.85 588.59-0.2L588.59-0.2Q584.94 0.8 583.57 1.65 582.19 2.5 582.19 3.75 582.19 5 583.57 5.78 584.94 6.55 587.39 6.55 589.84 6.55 591.39 5.65 592.94 4.75 592.94 3.3ZM643.76-12.65Q643.76-16.1 643.16-17.25 642.56-18.4 640.36-18.4 638.16-18.4 635.36-16.65L635.36-16.65 635.36-13 635.91-1.25 629.16 0 629.76-12.15 629.16-37.45 636.01-38.7 635.36-25.75 635.36-19.9Q636.11-20.9 637.06-21.85 638.01-22.8 640.01-24 642.01-25.2 644.28-25.2 646.56-25.2 648.11-23.43 649.66-21.65 649.66-18.6L649.66-18.6 649.36-13 649.91-1 643.16 0.25 643.76-12.65ZM680.43-24.2L683.33-24.2 683.33-29.65 690.08-30.95 689.43-24.2 695.48-24.2 694.93-20.1 689.23-20.1 688.98-9.65Q688.98-7.3 689.43-6.53 689.88-5.75 691.08-5.75 692.28-5.75 694.28-6.3L694.28-6.3 694.58-2.75Q691.28 0 688.78 0 686.28 0 684.68-1.83 683.08-3.65 683.08-6.6L683.08-6.6 683.38-12.2 683.33-20.1 679.88-20.1 680.43-24.2ZM732.65-4.65L732.65-4.65Q735.25-4.65 735.25-6.95L735.25-6.95Q735.25-7.75 734.12-8.45 733-9.15 731.37-9.85 729.75-10.55 728.12-11.43 726.5-12.3 725.37-13.85 724.25-15.4 724.25-17.4L724.25-17.4Q724.25-20.75 727.2-23.25 730.15-25.75 734-25.75L734-25.75Q735.8-25.75 737.52-25.33 739.25-24.9 740.85-24L740.85-24 737.5-17.9Q737.15-18.2 736.6-18.65 736.05-19.1 734.52-19.83 733-20.55 731.82-20.55 730.65-20.55 730.02-20.03 729.4-19.5 729.4-18.57 729.4-17.65 731.12-16.73 732.85-15.8 734.9-15.03 736.95-14.25 738.67-12.48 740.4-10.7 740.4-8.25L740.4-8.25Q740.4-4.75 737.52-2.1 734.65 0.55 730.9 0.55L730.9 0.55Q728.5 0.55 726.42-0.5 724.35-1.55 723.45-2.6L723.45-2.6 722.55-3.65 726.5-8.25Q726.8-7.85 727.35-7.25 727.9-6.65 729.52-5.65 731.15-4.65 732.65-4.65ZM769.86-3.28Q769.86-4.95 771.06-6.18 772.26-7.4 773.86-7.4 775.46-7.4 776.29-6.53 777.11-5.65 777.11-3.95 777.11-2.25 775.96-0.98 774.81 0.3 773.24 0.3 771.66 0.3 770.76-0.65 769.86-1.6 769.86-3.28ZM771.66-33.75L779.21-35 776.41-12.85 771.66-12.15 771.66-33.75ZM808.18-3.28Q808.18-4.95 809.38-6.18 810.58-7.4 812.18-7.4 813.78-7.4 814.61-6.53 815.43-5.65 815.43-3.95 815.43-2.25 814.28-0.98 813.13 0.3 811.56 0.3 809.98 0.3 809.08-0.65 808.18-1.6 808.18-3.28ZM809.98-33.75L817.53-35 814.73-12.85 809.98-12.15 809.98-33.75Z" opacity="1" transform="matrix(1,0,0,1,0,0)" fill="#000000" class="slogan-text-1" data-fill-palette-color="secondary" id="text-1"></path></svg></g></svg></g></svg></g></svg></g><g></g></svg></g></svg></g></svg></g><g><path d="M78.808 95.546A122.216 122.216 0 0 1 316.712 95.546L314.537 95.546A120.041 120.041 0 0 0 80.983 95.546L78.808 95.546M78.808 151.654A122.216 122.216 0 0 0 316.712 151.654L314.537 151.654A120.041 120.041 0 0 1 80.983 151.654L78.808 151.654" fill="#9e7ffa" stroke="transparent" data-fill-palette-color="tertiary"></path></g></svg></g><defs></defs></svg><rect width="395.52" height="247.2" fill="none" stroke="none" visibility="hidden"></rect></g></svg></g></svg>